<?xml version="1.0" standalone="no"?>
<!DOCTYPE svg PUBLIC "-//W3C//DTD SVG 1.1//EN" "http://www.w3.org/Graphics/SVG/1.1/DTD/svg11.dtd" >
<svg xmlns="http://www.w3.org/2000/svg">
<metadata></metadata>
<defs>
<font id="forzabook" horiz-adv-x="1441" >
<font-face units-per-em="2048" ascent="1638" descent="-410" />
<missing-glyph horiz-adv-x="460" />
<glyph unicode="&#xfb01;" horiz-adv-x="1224" d="M72 965v131h188v80q0 100 14 155.5t45 85.5q31 31 68 44.5t102 13.5h168v-129h-139q-57 0 -80 -23q-26 -26 -26 -143v-84h247v-131h-245v-965h-154v965h-188zM883 1298v197h180v-197h-180zM897 0v1096h152v-1096h-152z" />
<glyph unicode="&#xfb02;" horiz-adv-x="1224" d="M72 965v131h188v80q0 100 14 155.5t45 85.5q31 31 68 44.5t102 13.5h168v-129h-139q-57 0 -80 -23q-26 -26 -26 -143v-84h247v-131h-245v-965h-154v965h-188zM897 0v1475h152v-1475h-152z" />
<glyph unicode="&#xfb03;" horiz-adv-x="1945" d="M72 965v131h188v80q0 100 14 155.5t45 85.5q31 31 68 44.5t102 13.5h168v-129h-139q-57 0 -80 -23q-26 -26 -26 -143v-84h247v-131h-245v-965h-154v965h-188zM793 965v131h188v80q0 100 14 155.5t45 85.5q31 31 68 44.5t102 13.5h168v-129h-139q-57 0 -80 -23 q-26 -26 -26 -143v-84h247v-131h-245v-965h-154v965h-188zM1606 1298v197h180v-197h-180zM1620 0v1096h152v-1096h-152z" />
<glyph unicode="&#xfb04;" horiz-adv-x="1945" d="M72 965v131h188v80q0 100 14 155.5t45 85.5q31 31 68 44.5t102 13.5h168v-129h-139q-57 0 -80 -23q-26 -26 -26 -143v-84h247v-131h-245v-965h-154v965h-188zM793 965v131h188v80q0 100 14 155.5t45 85.5q31 31 68 44.5t102 13.5h168v-129h-139q-57 0 -80 -23 q-26 -26 -26 -143v-84h247v-131h-245v-965h-154v965h-188zM1620 0v1475h152v-1475h-152z" />
<glyph horiz-adv-x="2048" />
<glyph horiz-adv-x="2048" />
<glyph unicode="&#xd;" horiz-adv-x="2048" />
<glyph unicode=" "  horiz-adv-x="460" />
<glyph unicode="&#x09;" horiz-adv-x="460" />
<glyph unicode="&#xa0;" horiz-adv-x="460" />
<glyph unicode="!" horiz-adv-x="684" d="M244 1358v76h198v-76l-55 -948h-74zM248 0v209h188v-209h-188z" />
<glyph unicode="&#x22;" horiz-adv-x="808" d="M129 1395v39h207v-39l-62 -488h-84zM485 1395v39h207v-39l-61 -488h-84z" />
<glyph unicode="#" horiz-adv-x="1540" d="M88 393v133h283l100 414h-250v133h281l88 361h145l-88 -361h408l88 361h145l-88 -361h252v-133h-283l-100 -414h250v-133h-283l-94 -393h-145l96 393h-408l-96 -393h-145l94 393h-250zM510 520h418l102 426h-420z" />
<glyph unicode="$" horiz-adv-x="1349" d="M154 432h157q1 -142 9.5 -191.5t29.5 -70.5q17 -19 43 -26t76 -7h145v518l-161 17q-86 8 -134.5 23.5t-78.5 45.5q-37 39 -51.5 103t-14.5 200q0 133 18.5 207t63.5 119q64 64 215 64h139v163h133v-163h136q155 0 215 -60q44 -44 59 -112.5t18 -249.5h-155 q-1 133 -9.5 182.5t-29.5 69.5q-15 18 -39.5 25t-73.5 7h-125v-503l181 -17q155 -14 208 -67q39 -39 54.5 -106.5t15.5 -207.5q0 -141 -18.5 -214t-63.5 -118q-63 -63 -211 -63h-162v-184h-133v184h-161q-159 0 -220 61q-41 41 -56.5 112.5t-18.5 258.5zM330 1047 q0 -95 7.5 -133t29.5 -60q18 -15 44 -23t83 -14l120 -12v491h-129q-49 0 -72.5 -7t-43.5 -25q-39 -39 -39 -217zM739 137h148q49 0 73 7.5t44 25.5q38 38 38 223q0 101 -6.5 138.5t-29.5 60.5q-17 17 -43 25t-84 14l-140 12v-506z" />
<glyph unicode="%" horiz-adv-x="1716" d="M141 1071q0 146 17 212t55 101q50 50 156 50h102q103 0 156 -50q36 -35 52.5 -101t16.5 -212t-16.5 -212t-52.5 -101q-52 -49 -156 -49h-102q-107 0 -156 49q-38 35 -55 101t-17 212zM268 1071q0 -194 33 -227q28 -25 84 -25h70q57 0 82 25q34 31 34 227t-34 227 q-25 25 -82 25h-70q-56 0 -84 -25q-33 -33 -33 -227zM301 -6l518 756l467 690h131l-516 -752l-471 -694h-129zM1020 362q0 144 17.5 211.5t54.5 102.5q49 49 155 49h103q106 0 155 -49q38 -35 55 -101.5t17 -212.5t-17 -212t-55 -101q-49 -49 -155 -49h-103q-106 0 -155 49 q-37 35 -54.5 102t-17.5 211zM1147 362q0 -196 35 -227q24 -24 82 -24h69q57 0 84 24q33 33 33 227q0 195 -33 228q-27 24 -84 24h-69q-58 0 -82 -24q-35 -32 -35 -228z" />
<glyph unicode="&#x26;" horiz-adv-x="1421" d="M127 416q0 159 12.5 219.5t57.5 103.5q54 57 202 74l15 2q-45 85 -45 227q0 150 14.5 219.5t54.5 110.5q34 34 87 48t145 14h133q145 0 201 -56q42 -41 56.5 -112t14.5 -230h-151q-1 122 -9 170t-26 66q-24 28 -113 28h-94q-54 0 -81 -6.5t-42 -23.5q-20 -20 -26.5 -66 t-6.5 -164q0 -102 25 -157q14 -39 84 -115l262 -274h16l244 325h174l-325 -432l362 -387h-203l-241 258h-19l-98 -135q-50 -66 -110.5 -95.5t-147.5 -29.5h-103q-92 0 -145.5 15t-91.5 53q-47 47 -64.5 123t-17.5 227zM281 416q0 -118 10 -169.5t37 -78.5q21 -21 53 -29 t98 -8h47q62 0 100.5 16.5t71.5 61.5l117 156l-323 337l-68 -14q-75 -13 -109 -47q-19 -20 -26.5 -65t-7.5 -160z" />
<glyph unicode="'" horiz-adv-x="454" d="M129 1395v39h207v-39l-62 -488h-84z" />
<glyph unicode="(" horiz-adv-x="796" d="M203 563q0 325 18 428q12 73 73 174t204 289h114q-115 -192 -164 -288.5t-59 -153.5q-20 -100 -20 -449q0 -348 20 -448q10 -57 59.5 -154.5t163.5 -288.5h-114q-143 188 -204 289t-73 174q-18 103 -18 428z" />
<glyph unicode=")" horiz-adv-x="796" d="M184 -328q115 192 164.5 289.5t59.5 153.5q20 100 20 448q0 349 -20 449q-10 56 -59 152.5t-165 289.5h115q144 -189 205 -289.5t71 -173.5q19 -108 19 -428t-19 -428q-10 -73 -71 -173.5t-205 -289.5h-115z" />
<glyph unicode="*" horiz-adv-x="1056" d="M170 1022v127l266 -33v-61zM293 807l162 213l53 -31l-105 -246zM293 1364l110 63l105 -245l-53 -31zM547 989l55 31l162 -213l-113 -64zM547 1182l104 245l113 -63l-162 -213zM621 1055v61l266 33v-127z" />
<glyph unicode="+" horiz-adv-x="1052" d="M127 676v135h332v332h135v-332h332v-135h-332v-332h-135v332h-332z" />
<glyph unicode="," horiz-adv-x="466" d="M59 -274l140 200q16 26 16 58v16h-84v213h203v-205q0 -42 -10 -69.5t-35 -57.5l-172 -200z" />
<glyph unicode="-" horiz-adv-x="835" d="M129 575v154h578v-154h-578z" />
<glyph unicode="." horiz-adv-x="471" d="M137 0v213h199v-213h-199z" />
<glyph unicode="/" horiz-adv-x="978" d="M-68 -328l836 1782h154l-836 -1782h-154z" />
<glyph unicode="0" horiz-adv-x="1402" d="M156 717q0 216 17 351.5t43 195.5t69 100t99.5 55t166.5 15h301q109 0 166 -15t100 -55q65 -61 97 -198t32 -449t-32 -449t-97 -198q-43 -40 -100 -55t-166 -15h-301q-110 0 -166.5 15t-99.5 55t-69 100t-43 195.5t-17 351.5zM326 717q0 -287 19 -395.5t56 -143.5 q22 -21 54 -30t100 -9h293q67 0 99 9t54 30q23 23 37.5 63t26.5 159.5t12 316.5t-12 316.5t-26.5 159t-37.5 62.5q-22 21 -54 30t-99 9h-293q-68 0 -100 -9t-54 -30q-24 -23 -38.5 -63t-25.5 -158t-11 -317z" />
<glyph unicode="1" horiz-adv-x="788" d="M66 1298l335 138h136v-1436h-162v1272l-262 -103z" />
<glyph unicode="2" horiz-adv-x="1316" d="M162 0v178q0 151 19.5 223t70.5 125q33 33 76 58t121 57l403 160q56 23 82 41.5t41 40.5q19 28 28 67.5t9 122.5q0 136 -47 180q-20 22 -52 30.5t-92 8.5h-291q-55 0 -84.5 -9t-48.5 -30q-21 -22 -31.5 -74t-11.5 -167h-164q1 160 21 234.5t65 121.5q69 66 234 66h352 q159 0 225 -66q91 -91 91 -295q0 -116 -16.5 -177.5t-55.5 -109.5q-28 -36 -75.5 -64t-133.5 -63l-403 -159q-94 -40 -125 -76q-26 -29 -38 -72.5t-12 -134.5v-76h871v-141h-1028z" />
<glyph unicode="3" horiz-adv-x="1339" d="M143 446h166q4 -125 16.5 -186.5t36.5 -85.5q20 -19 50.5 -27t91.5 -8h313q59 0 90 8t51 29q54 50 54 232q0 174 -51 229q-45 39 -144 39h-313v137h299q59 0 90.5 9.5t52.5 31.5q53 49 53 201q0 156 -53 205q-18 20 -49 27t-90 7h-293q-62 0 -91.5 -8t-47.5 -26 q-47 -44 -56 -246h-163q2 133 24 217.5t74 136.5q69 66 235 66h357q167 0 233 -66q92 -92 92 -301q0 -141 -50.5 -219t-135.5 -103v-2q98 -21 148.5 -101t50.5 -239q0 -133 -22 -211t-70 -126q-66 -66 -234 -66h-379q-169 0 -235 66q-53 51 -75.5 139t-25.5 241z" />
<glyph unicode="4" horiz-adv-x="1337" d="M100 381v57q0 64 37 123l533 785q32 51 60.5 69.5t72.5 18.5h196v-920h244v-133h-244v-381h-157v381h-742zM276 514h566v786h-35z" />
<glyph unicode="5" horiz-adv-x="1351" d="M160 414h164q1 -117 13 -167.5t34 -72.5q38 -35 133 -35h340q93 0 135 39q51 48 51 266q0 119 -12.5 179t-38.5 86q-42 36 -135 36h-215q-86 0 -151 -21.5t-150 -78.5l-140 49l50 740h919v-146h-770l-37 -500h17q69 59 130 78t171 19h198q89 0 145 -17.5t95 -54.5 q51 -52 72.5 -134t21.5 -235q0 -154 -21.5 -235.5t-72.5 -132.5q-39 -39 -94.5 -57.5t-145.5 -18.5h-383q-172 0 -235 66q-49 47 -68.5 118t-19.5 230z" />
<glyph unicode="6" horiz-adv-x="1366" d="M160 717q0 212 16.5 345.5t42.5 196.5t70 103q44 41 102.5 56.5t171.5 15.5h307q159 0 220 -64q46 -46 65 -115.5t19 -216.5h-164q-3 107 -13 153.5t-32 68.5q-20 20 -48 27t-81 7h-271q-71 0 -105 -10t-57 -31q-38 -36 -56.5 -144t-18.5 -390q88 65 137.5 85.5 t118.5 20.5h295q99 0 157 -16t97 -53q46 -46 63.5 -119.5t17.5 -218.5q0 -134 -22 -212t-72 -128q-75 -78 -250 -78h-317q-107 0 -165.5 16.5t-102.5 57.5q-42 40 -67 99t-41.5 193.5t-16.5 350.5zM328 623q4 -227 23.5 -318.5t54.5 -124.5q21 -21 53 -31t102 -10h281 q60 0 94.5 9.5t58.5 33.5q52 55 52 232q0 101 -11 151.5t-37 77.5q-25 23 -58.5 33t-98.5 10h-301q-93 0 -213 -63z" />
<glyph unicode="7" horiz-adv-x="1198" d="M98 1290v144h996v-105l-639 -1329h-176l626 1290h-807z" />
<glyph unicode="8" horiz-adv-x="1374" d="M158 401q0 159 52 240t152 102v2q-93 21 -140.5 96t-47.5 222q0 108 21.5 178t70.5 117q76 76 244 76h354q171 0 244 -76q49 -47 71.5 -117.5t22.5 -177.5q0 -147 -48.5 -222t-141.5 -96v-2q100 -21 152.5 -102t52.5 -240q0 -124 -23 -199t-72 -124q-81 -78 -256 -78 h-356q-178 0 -256 78q-50 48 -73 123t-23 200zM328 406q0 -168 53 -224q24 -24 59 -33.5t95 -9.5h305q60 0 94.5 9.5t58.5 33.5q54 54 54 224q0 171 -56 227q-50 47 -157 47h-293q-108 0 -158 -47q-55 -55 -55 -227zM344 1057q0 -153 51 -201q45 -45 148 -45h291 q102 0 147 45q51 51 51 201q0 145 -51 196q-23 23 -54.5 32t-86.5 9h-305q-55 0 -86 -9t-54 -32q-51 -48 -51 -196z" />
<glyph unicode="9" horiz-adv-x="1368" d="M154 1004q0 140 22 221t72 131q41 41 100 59.5t150 18.5h319q107 0 164.5 -16.5t101.5 -57.5q42 -40 67.5 -99t42.5 -194t17 -350q0 -211 -17 -345.5t-43 -196.5t-69 -103q-44 -41 -103 -56.5t-173 -15.5h-334q-158 0 -221 63q-46 46 -64.5 113t-19.5 209h160 q3 -101 12.5 -144.5t32.5 -66.5q20 -20 47.5 -27.5t79.5 -7.5h305q71 0 105 10t57 31q25 24 39 60.5t24.5 145.5t11.5 300q-89 -64 -137.5 -84t-116.5 -20h-297q-98 0 -155 16t-96 53q-46 46 -65 124.5t-19 228.5zM322 1010q0 -110 11 -164.5t36 -81.5q25 -23 59 -33 t100 -10h301q95 0 211 61q-3 234 -22.5 335t-52.5 136q-23 21 -55 31t-101 10h-283q-60 0 -94.5 -9.5t-58.5 -33.5q-51 -54 -51 -241z" />
<glyph unicode=":" horiz-adv-x="475" d="M139 0v213h199v-213h-199zM139 883v213h199v-213h-199z" />
<glyph unicode=";" horiz-adv-x="473" d="M61 -274l140 200q16 26 16 58v16h-84v213h203v-205q0 -43 -9.5 -70.5t-35.5 -56.5l-172 -200zM135 883v213h203v-213h-203z" />
<glyph unicode="&#x3c;" horiz-adv-x="1036" d="M137 672v135l744 379v-152l-594 -293l594 -292v-154z" />
<glyph unicode="=" horiz-adv-x="1052" d="M139 483v146h774v-146h-774zM139 858v146h774v-146h-774z" />
<glyph unicode="&#x3e;" horiz-adv-x="1036" d="M156 295v149l594 293l-594 295v154l743 -379v-135z" />
<glyph unicode="?" horiz-adv-x="1110" d="M100 1004q0 177 15 251.5t57 118.5q60 60 211 60h326q149 0 213 -64q41 -41 58 -106.5t17 -180.5q0 -125 -15 -181t-62 -103q-23 -24 -67 -47t-146 -68q-81 -38 -111 -68q-22 -22 -31 -61.5t-12 -134.5h-123v59q0 107 11 158t44 84q40 40 166 96q119 51 146 78 q24 24 32.5 59.5t8.5 122.5q0 145 -39 187q-31 28 -113 28h-280q-48 0 -71 -5.5t-40 -22.5q-19 -18 -27.5 -71t-9.5 -189h-158zM399 0v207h185v-207h-185z" />
<glyph unicode="@" horiz-adv-x="1931" d="M199 563q0 186 11 323t32 221.5t44.5 133t55.5 80.5q40 39 77.5 61t109.5 37t178 15h542q147 0 221 -25.5t132 -81.5q131 -131 131 -668q0 -216 -22.5 -321.5t-68.5 -149.5q-61 -61 -165 -61h-52q-140 0 -227 123q-88 -75 -135.5 -99t-112.5 -24h-80q-78 0 -122.5 13 t-73.5 44q-43 41 -62.5 124t-19.5 263t19.5 263t62.5 124q30 31 74.5 44.5t121.5 13.5h80q65 0 111 -24t133 -99l31 123h96l-12 -225v-451q0 -51 7.5 -75.5t26.5 -43.5q33 -33 121 -33q54 0 83 9t52 32q37 39 54.5 133t17.5 297q0 508 -121 629q-47 48 -111.5 68t-195.5 20 h-534q-138 0 -203 -22t-119 -76q-39 -40 -65 -108t-44 -221t-18 -386q0 -339 33.5 -496.5t95.5 -220.5q51 -51 118 -73.5t202 -22.5h839v-57h-841q-106 0 -178 15t-109.5 37t-77.5 60q-68 68 -105.5 235t-37.5 523zM721 571q0 -155 9.5 -216t31.5 -85q18 -18 43.5 -25 t75.5 -7h94q55 0 100 17t109 60v510q-65 44 -109 62t-96 18h-98q-86 0 -119 -33q-22 -24 -31.5 -85t-9.5 -216z" />
<glyph unicode="A" horiz-adv-x="1329" d="M55 0l467 1386q9 33 24 43.5t54 10.5h129q38 0 52.5 -10.5t25.5 -43.5l467 -1386h-174l-142 438h-600l-141 -438h-162zM403 575h510l-233 721h-43z" />
<glyph unicode="B" horiz-adv-x="1378" d="M195 0v1434h716q156 0 222 -60q47 -44 67.5 -112.5t20.5 -206.5q0 -99 -24.5 -162.5t-65.5 -95.5t-109 -52v-2q118 -24 165.5 -96.5t47.5 -238.5q0 -159 -22.5 -230t-69.5 -115q-63 -63 -223 -63h-725zM356 139h539q55 0 84 6t47 23q22 22 34.5 71.5t12.5 166.5 q0 111 -12.5 161t-36.5 74q-19 19 -47 27t-84 8h-537v-537zM356 813h525q55 0 83 7.5t48 25.5q47 47 47 211t-45 209q-17 17 -45 22.5t-86 5.5h-527v-481z" />
<glyph unicode="C" horiz-adv-x="1382" d="M156 717q0 234 15 371.5t38 193t65 94.5q35 32 83.5 45t142.5 13h424q94 0 142 -13t83 -45q54 -50 78 -132.5t28 -256.5h-159q-4 135 -18.5 193.5t-39.5 83.5q-33 30 -131 30h-391q-98 0 -131 -30q-20 -20 -32.5 -57.5t-23 -160.5t-10.5 -329t10.5 -329t23 -160.5 t32.5 -57.5q34 -31 131 -31h391h13q49 0 73 7q27 8 45 24q25 25 40 86t20 213h159q-7 -196 -30.5 -279t-77.5 -133q-35 -32 -83 -44.5t-142 -12.5h-424q-95 0 -143 12.5t-83 44.5q-41 39 -64.5 95t-38.5 193.5t-15 371.5z" />
<glyph unicode="D" horiz-adv-x="1429" d="M195 0v1434h647q113 0 182 -20.5t121 -67.5q70 -67 105.5 -210.5t35.5 -418.5t-35.5 -418.5t-105.5 -210.5q-52 -47 -121 -67.5t-182 -20.5h-647zM356 139h486q75 0 113.5 10.5t68.5 40.5q48 44 73 160t25 365q0 251 -25 367.5t-73 160.5q-32 30 -69.5 40.5t-112.5 10.5 h-486v-1155z" />
<glyph unicode="E" horiz-adv-x="1253" d="M195 0v1434h952v-140h-791v-481h678v-137h-678v-537h785v-139h-946z" />
<glyph unicode="F" horiz-adv-x="1167" d="M195 0v1434h899v-140h-738v-510h613v-137h-613v-647h-161z" />
<glyph unicode="G" horiz-adv-x="1413" d="M156 717q0 234 14.5 371.5t37.5 193t64 94.5q35 32 84 45t144 13h426q94 0 142 -13t83 -45q56 -53 78 -131t26 -246h-157q-4 124 -17.5 181.5t-40.5 83.5q-16 16 -42 23t-87 7h-397q-98 0 -131 -30q-20 -20 -32 -58t-22 -160t-10 -329t10 -329t22 -160t32 -58 q34 -31 131 -31h397h13q48 0 72 7q26 7 44 24q30 30 46 107t16 264v45h-389v139h551v-115q0 -271 -26 -383.5t-87 -169.5q-35 -32 -83 -44.5t-142 -12.5h-428q-95 0 -143 12.5t-83 44.5q-41 39 -64 95t-37.5 193.5t-14.5 371.5z" />
<glyph unicode="H" horiz-adv-x="1505" d="M195 0v1434h161v-621h793v621h162v-1434h-162v674h-793v-674h-161z" />
<glyph unicode="I" horiz-adv-x="565" d="M203 0v1434h162v-1434h-162z" />
<glyph unicode="J" horiz-adv-x="1167" d="M76 457h155q5 -134 16.5 -195t37.5 -86q19 -19 46.5 -28t84.5 -9h147q97 0 138.5 9t60.5 28q31 33 46 114.5t15 278.5v865h162v-852q0 -247 -23 -351t-81 -163q-41 -39 -108 -54.5t-191 -15.5h-176q-172 0 -238 63q-49 49 -68 132t-24 264z" />
<glyph unicode="K" horiz-adv-x="1284" d="M195 0v1434h161v-621h160l533 621h190l-592 -680l604 -754h-194l-537 674h-164v-674h-161z" />
<glyph unicode="L" horiz-adv-x="1148" d="M195 0v1434h161v-1295h729v-139h-890z" />
<glyph unicode="M" horiz-adv-x="1812" d="M195 0v1434h245q34 0 49.5 -12.5t24.5 -45.5l383 -1175h25l381 1175q9 33 24 45.5t49 12.5h240v-1434h-164v1282h-25l-409 -1227q-11 -35 -22.5 -45t-45.5 -10h-96q-34 0 -45.5 10t-22.5 45l-409 1239h-25v-1294h-157z" />
<glyph unicode="N" horiz-adv-x="1486" d="M195 0v1434h178q37 0 54.5 -11.5t35.5 -46.5l645 -1138h27v1196h157v-1434h-166q-39 0 -57 10.5t-35 44.5l-657 1170h-25v-1225h-157z" />
<glyph unicode="O" d="M156 717q0 234 15 371.5t38 193t65 94.5q35 32 83.5 45t142.5 13h442q95 0 143.5 -13t81.5 -45q42 -39 65.5 -94.5t38.5 -193t15 -371.5t-15 -371.5t-38.5 -193.5t-65.5 -95q-33 -32 -81 -44.5t-144 -12.5h-442q-95 0 -143 12.5t-83 44.5q-41 39 -64.5 95t-38.5 193.5 t-15 371.5zM319 717q0 -206 10.5 -329t23 -160.5t32.5 -57.5q34 -31 131 -31h410h13q49 0 73 7q27 8 45 24q21 19 33.5 57.5t22 160t9.5 329.5t-9.5 329.5t-22 160t-33.5 57.5q-33 30 -131 30h-410q-98 0 -131 -30q-20 -20 -32.5 -57.5t-23 -160.5t-10.5 -329z" />
<glyph unicode="P" horiz-adv-x="1296" d="M195 0v1434h682q83 0 135 -13t84 -45q51 -48 77.5 -129.5t26.5 -249.5q0 -163 -26.5 -242.5t-77.5 -127.5q-32 -32 -84 -45t-135 -13h-521v-569h-161zM356 709h486q59 0 88.5 6.5t48.5 23.5q57 53 57 262q0 210 -57 263q-19 17 -48.5 23.5t-88.5 6.5h-486v-585z" />
<glyph unicode="Q" d="M156 717q0 234 15 371.5t38 193t65 94.5q35 32 83.5 45t142.5 13h442q95 0 143.5 -13t81.5 -45q42 -39 65.5 -94.5t38.5 -193t15 -371.5t-15 -371.5t-38.5 -193.5t-65.5 -95q-32 -30 -78.5 -43.5t-132.5 -13.5l76 -221h-153l-76 221h-303q-95 0 -143 12.5t-83 44.5 q-41 39 -64.5 95t-38.5 193.5t-15 371.5zM319 717q0 -206 10.5 -329t23 -160.5t32.5 -57.5q34 -31 131 -31h240l-105 293h156l100 -293h19q97 0 131 31q21 19 33.5 57.5t22 160t9.5 329.5t-9.5 329.5t-22 160t-33.5 57.5q-33 30 -131 30h-410q-98 0 -131 -30 q-20 -20 -32.5 -57.5t-23 -160.5t-10.5 -329z" />
<glyph unicode="R" horiz-adv-x="1390" d="M195 0v1434h725q147 0 210 -60q46 -46 68.5 -119t22.5 -219q0 -122 -24.5 -194.5t-68.5 -106t-120 -49.5v-2q46 -11 74.5 -22.5t54 -32t39 -52.5t22.5 -79.5t12 -116.5q9 -264 23 -381h-160q-19 133 -26 377q-3 101 -15 143t-37 64q-23 22 -58.5 30.5t-100.5 8.5h-480 v-623h-161zM356 758h521q89 0 124 35q58 58 58 235q0 183 -55 238q-28 28 -123 28h-525v-536z" />
<glyph unicode="S" horiz-adv-x="1363" d="M150 432h157q3 -144 11 -193t28 -69q31 -31 115 -31h440q51 0 76.5 7t42.5 26q39 39 39 221q0 101 -7 139.5t-30 61.5q-34 30 -127 37l-449 41q-152 13 -210 71q-39 39 -53.5 102t-14.5 199q0 134 18.5 207.5t65.5 118.5q61 64 207 64h444q81 0 130 -13.5t81 -46.5 q44 -44 59.5 -113t18.5 -249h-160q-1 132 -9 181.5t-28 70.5q-34 30 -114 30h-398q-51 0 -75 -6.5t-43 -25.5q-37 -40 -37 -215q0 -95 7.5 -133t29.5 -60q17 -17 42 -23.5t85 -11.5l448 -41q152 -14 209 -71q39 -39 54.5 -105.5t15.5 -206.5q0 -141 -19 -214t-65 -118 q-63 -63 -209 -63h-490q-82 0 -129.5 13t-79.5 46q-43 43 -59.5 114.5t-17.5 258.5z" />
<glyph unicode="T" horiz-adv-x="1187" d="M47 1294v140h1096v-140h-467v-1294h-162v1294h-467z" />
<glyph unicode="U" horiz-adv-x="1480" d="M195 584v850h161v-879q0 -194 15 -268.5t47 -106.5q21 -21 61.5 -30t138.5 -9h248q98 0 137.5 8.5t61.5 30.5q32 33 45.5 105t13.5 270v879h160v-850q0 -170 -11 -270t-31.5 -150t-59.5 -90q-42 -40 -109 -57t-188 -17h-297q-119 0 -185 17t-106 57q-39 39 -59.5 88 t-31.5 149.5t-11 272.5z" />
<glyph unicode="V" horiz-adv-x="1302" d="M55 1434h174l406 -1282h41l405 1282h164l-452 -1389q-9 -32 -24 -41.5t-56 -9.5h-125q-39 0 -55 9.5t-25 41.5z" />
<glyph unicode="W" horiz-adv-x="1931" d="M78 1434h170l266 -1241h33l293 1185q7 38 24.5 50t61.5 12h90q42 0 59.5 -12t24.5 -50l293 -1185h30l269 1241h161l-317 -1391q-6 -30 -21.5 -39.5t-58.5 -9.5h-100q-42 0 -57.5 9.5t-22.5 41.5l-293 1188h-33l-293 -1188q-6 -32 -21.5 -41.5t-57.5 -9.5h-101 q-43 0 -58.5 9.5t-21.5 39.5z" />
<glyph unicode="X" horiz-adv-x="1280" d="M47 0l498 729l-484 705h189l391 -572h16l387 572h179l-482 -703l496 -731h-180l-414 600h-14l-408 -600h-174z" />
<glyph unicode="Y" horiz-adv-x="1206" d="M25 1434h176l399 -701h12l396 701h174l-496 -865v-569h-162v567z" />
<glyph unicode="Z" horiz-adv-x="1265" d="M102 0v104l865 1190h-824v140h1031v-105l-867 -1190h856v-139h-1061z" />
<glyph unicode="[" horiz-adv-x="868" d="M209 -307v1741h528v-129h-383v-1483h383v-129h-528z" />
<glyph unicode="\" horiz-adv-x="974" d="M57 1454h150l835 -1782h-149z" />
<glyph unicode="]" horiz-adv-x="868" d="M131 -178h383v1483h-383v129h531v-1741h-531v129z" />
<glyph unicode="^" horiz-adv-x="1052" d="M174 979v10l303 451h96l304 -451v-10h-111l-242 340l-241 -340h-109z" />
<glyph unicode="_" horiz-adv-x="1024" d="M-4 -133h1032v-123h-1032v123z" />
<glyph unicode="`" horiz-adv-x="1024" d="M260 1473v10h238l188 -232v-10h-137z" />
<glyph unicode="a" horiz-adv-x="1171" d="M123 297q0 183 67 250q39 39 103.5 56.5t212.5 17.5q180 0 346 -27v182q0 135 -31 166q-27 27 -114 27h-226q-54 0 -81.5 -6.5t-45.5 -24.5q-19 -21 -27.5 -57.5t-9.5 -110.5h-147q1 113 17.5 171t52.5 95q34 34 79 47t123 13h295q87 0 132.5 -13.5t74.5 -44.5 q34 -34 45.5 -87t11.5 -165v-786h-149v139q-107 -87 -162 -114t-137 -27h-160q-147 0 -205 61q-33 31 -49 85t-16 153zM272 317q0 -72 7 -107t26 -52q34 -31 119 -31h154q73 0 128.5 20t145.5 78v279h-356q-93 0 -129.5 -8t-57.5 -29q-22 -22 -29.5 -52.5t-7.5 -97.5z" />
<glyph unicode="b" horiz-adv-x="1222" d="M176 0v1475h152v-525q112 92 169.5 120t141.5 28h127q92 0 144.5 -16t88.5 -52q33 -35 50.5 -82t26.5 -141t9 -258q0 -165 -9 -259.5t-26 -141.5t-51 -82q-36 -36 -88.5 -52t-144.5 -16h-127q-84 0 -143.5 28.5t-167.5 118.5v-145h-152zM328 233q88 -56 146 -78t126 -22 h135q64 0 96.5 9t53.5 30q30 30 39.5 102.5t9.5 274.5q0 200 -9.5 272.5t-39.5 102.5q-21 21 -53.5 30t-96.5 9h-139q-68 0 -125 -22t-143 -77v-631z" />
<glyph unicode="c" horiz-adv-x="1130" d="M137 549q0 239 20 335t74 150q35 35 86 48.5t138 13.5h286q81 0 123.5 -12.5t73.5 -43.5q39 -39 56 -104t20 -199h-148q-4 99 -13 137.5t-28 57.5q-17 17 -40 23t-74 6h-240q-59 0 -87 -6.5t-46 -24.5q-27 -27 -38 -100t-11 -281q0 -209 11 -282.5t38 -100.5 q19 -18 47 -24.5t86 -6.5h240q51 0 75 6t43 23q20 20 29 63.5t12 143.5h148q-4 -145 -21.5 -210t-58.5 -106q-30 -30 -74 -42.5t-121 -12.5h-288q-87 0 -138.5 13.5t-85.5 47.5q-54 54 -74 151t-20 337z" />
<glyph unicode="d" horiz-adv-x="1226" d="M137 549q0 164 9 258t26.5 141t50.5 82q36 36 89.5 52t144.5 16h131q82 0 140 -28.5t171 -119.5v525h152v-1475h-152v145q-111 -90 -170.5 -118.5t-140.5 -28.5h-131q-91 0 -144.5 16t-89.5 52q-34 35 -51 82t-26 141.5t-9 259.5zM289 549q0 -199 10.5 -272t40.5 -105 q22 -20 53.5 -29.5t93.5 -9.5h140q67 0 124.5 22.5t147.5 80.5v624q-89 58 -145 80.5t-123 22.5h-144q-63 0 -94.5 -9t-52.5 -30q-30 -30 -40.5 -103.5t-10.5 -271.5z" />
<glyph unicode="e" horiz-adv-x="1177" d="M137 549q0 239 20 335t74 150q35 35 86 48.5t138 13.5h274q161 0 221 -60q54 -56 74 -151t20 -326v-35q0 -24 -24 -24h-731q1 -177 12.5 -244t36.5 -92q19 -19 45.5 -25t85.5 -6h272q50 0 76 7t43 24q19 19 27.5 54.5t9.5 117.5h147q-3 -124 -19 -181.5t-56 -97.5 q-31 -31 -76 -44t-123 -13h-315q-87 0 -138.5 13.5t-85.5 47.5q-54 54 -74 151t-20 337zM289 621h606q-1 160 -12.5 223t-38.5 88q-18 18 -45.5 25.5t-85.5 7.5h-244q-58 0 -85.5 -7.5t-47.5 -27.5q-25 -25 -35.5 -85.5t-11.5 -223.5z" />
<glyph unicode="f" horiz-adv-x="722" d="M72 965v131h188v80q0 100 14 155.5t45 85.5q31 31 68 44.5t102 13.5h168v-129h-139q-57 0 -80 -23q-26 -26 -26 -143v-84h247v-131h-245v-965h-154v965h-188z" />
<glyph unicode="g" horiz-adv-x="1224" d="M139 598q0 144 9 227t26 126.5t51 78.5q36 36 89 52t145 16h127q83 0 141.5 -28.5t169.5 -119.5v146h152v-1071q0 -125 -15.5 -181.5t-54.5 -95.5q-52 -55 -191 -55h-387q-120 0 -176 53q-32 32 -45 77.5t-14 135.5h151q1 -53 8 -76.5t25 -38.5q21 -24 101 -24h309 q78 0 104 26q17 17 25 48.5t8 113.5v234q-111 -90 -169.5 -118t-141.5 -28h-127q-92 0 -145 16t-89 52q-49 52 -67.5 138.5t-18.5 295.5zM291 598q0 -177 10 -237.5t41 -90.5q20 -22 52 -31.5t95 -9.5h142q66 0 122.5 22t143.5 79v530q-89 59 -146.5 82t-125.5 23h-136 q-108 0 -147 -39q-31 -31 -41 -92t-10 -236z" />
<glyph unicode="h" horiz-adv-x="1218" d="M176 0v1475h152v-525q112 91 169 119.5t142 28.5h160q74 0 116 -13.5t74 -44.5q31 -33 44.5 -82.5t13.5 -136.5v-821h-152v811q0 88 -33 121q-18 18 -41.5 24.5t-81.5 6.5h-143q-68 0 -124 -21t-144 -78v-864h-152z" />
<glyph unicode="i" horiz-adv-x="501" d="M162 1298v197h180v-197h-180zM176 0v1096h152v-1096h-152z" />
<glyph unicode="j" horiz-adv-x="524" d="M-8 -178v-123q62 -10 110 -10q130 0 187 57q34 34 47.5 84t13.5 147v1119h-151v-1147q0 -75 -27 -105q-25 -22 -90 -22h-90zM184 1298v197h181v-197h-181z" />
<glyph unicode="k" horiz-adv-x="1069" d="M176 0v1475h152v-859h112l404 480h182l-467 -535l483 -561h-190l-416 489h-108v-489h-152z" />
<glyph unicode="l" horiz-adv-x="501" d="M176 0v1475h152v-1475h-152z" />
<glyph unicode="m" horiz-adv-x="1855" d="M176 0v1096h152v-146q112 91 169 119.5t142 28.5h119q73 0 115.5 -14t72.5 -44q38 -38 49 -98q122 97 180 126.5t142 29.5h119q74 0 116 -13.5t74 -44.5q31 -32 44 -82t13 -137v-821h-151v811q0 88 -33 121q-18 18 -41.5 24.5t-81.5 6.5h-102q-67 0 -125 -21.5 t-145 -77.5q2 -14 2 -43v-821h-152v811q0 88 -33 121q-18 18 -42.5 24.5t-82.5 6.5h-100q-68 0 -124 -21t-144 -78v-864h-152z" />
<glyph unicode="n" horiz-adv-x="1218" d="M176 0v1096h152v-146q112 91 169 119.5t142 28.5h160q74 0 116 -13.5t74 -44.5q31 -33 44.5 -82.5t13.5 -136.5v-821h-152v811q0 88 -33 121q-18 18 -41.5 24.5t-81.5 6.5h-143q-68 0 -124 -21t-144 -78v-864h-152z" />
<glyph unicode="o" horiz-adv-x="1196" d="M137 549q0 239 20 335t74 150q35 35 86 48.5t138 13.5h286q86 0 137.5 -14t84.5 -48q56 -54 76 -150t20 -335q0 -241 -20 -337.5t-76 -150.5q-33 -34 -84.5 -47.5t-137.5 -13.5h-286q-87 0 -138.5 13.5t-85.5 47.5q-54 54 -74 151t-20 337zM289 549q0 -209 11 -282.5 t38 -100.5q19 -18 47 -24.5t86 -6.5h254q58 0 86 7t45 24q28 28 39.5 101.5t11.5 281.5q0 206 -11.5 279.5t-39.5 101.5q-17 18 -44.5 24.5t-86.5 6.5h-254q-59 0 -87 -6.5t-46 -24.5q-27 -27 -38 -100t-11 -281z" />
<glyph unicode="p" horiz-adv-x="1222" d="M176 -307v1403h152v-146q112 92 169.5 120t141.5 28h127q92 0 144.5 -16t88.5 -52q33 -35 50.5 -82t26.5 -141t9 -258q0 -165 -9 -259.5t-26 -141.5t-51 -82q-36 -36 -88.5 -52t-144.5 -16h-127q-84 0 -143.5 28.5t-167.5 118.5v-452h-152zM328 233q88 -56 146 -78 t126 -22h135q109 0 148 39q31 31 41 103t10 274q0 201 -10 273.5t-41 101.5q-19 21 -51.5 30t-96.5 9h-139q-68 0 -125 -22t-143 -77v-631z" />
<glyph unicode="q" horiz-adv-x="1222" d="M137 549q0 164 9 258t26.5 141t50.5 82q36 36 89.5 52t144.5 16h129q82 0 140 -28.5t171 -119.5v146h152v-1403h-152v454q-111 -91 -170 -120t-141 -29h-129q-91 0 -144.5 16t-89.5 52q-34 35 -51 82t-26 141.5t-9 259.5zM289 549q0 -199 10.5 -272t40.5 -105 q22 -20 53.5 -29.5t93.5 -9.5h136q68 0 126 22.5t148 80.5v626q-87 57 -143.5 79t-124.5 22h-142q-63 0 -94.5 -9t-52.5 -30q-30 -30 -40.5 -103.5t-10.5 -271.5z" />
<glyph unicode="r" horiz-adv-x="794" d="M176 0v1096h152v-178q105 110 156.5 145t117.5 35h131v-156h-145q-68 0 -122 -18t-138 -76v-848h-152z" />
<glyph unicode="s" horiz-adv-x="1128" d="M131 332h139q3 -95 10 -129.5t23 -50.5q25 -25 92 -25h340q63 0 90 27q31 31 31 147q0 113 -27 137q-23 26 -104 31l-348 35q-75 8 -114 20t-62 35q-31 31 -43.5 81.5t-12.5 154.5q0 184 68 252q49 49 162 49h379q121 0 168 -47q34 -34 48 -90t15 -187h-139 q-3 90 -10.5 123.5t-22.5 48.5q-25 25 -92 25h-313q-61 0 -86 -25q-33 -33 -33 -141q0 -65 5 -92t19 -39q13 -14 34.5 -21.5t72.5 -11.5l352 -35q132 -11 174 -53q30 -30 41.5 -83.5t11.5 -158.5q0 -110 -15.5 -167t-51.5 -93q-49 -49 -162 -49h-401q-127 0 -174 47 q-37 37 -50 91t-14 194z" />
<glyph unicode="t" horiz-adv-x="770" d="M49 965v131h189v274h153v-274h301v-131h-301v-715q0 -76 23 -96q20 -23 96 -23h180v-98l-96 -25q-78 -16 -148 -16q-110 0 -161 51q-27 27 -37 65.5t-10 106.5v750h-189z" />
<glyph unicode="u" horiz-adv-x="1218" d="M172 274v822h152v-811q0 -90 32 -119q19 -19 43.5 -26t81.5 -7h144q68 0 124 20.5t144 77.5v865h151v-1096h-151v147q-112 -92 -170.5 -120.5t-142.5 -28.5h-160q-75 0 -117 13.5t-72 45.5q-32 31 -45.5 80t-13.5 137z" />
<glyph unicode="v" horiz-adv-x="1052" d="M47 1096h166l305 -934h27l303 934h158l-365 -1051q-11 -31 -24 -41t-44 -10h-94q-31 0 -43.5 10t-23.5 41z" />
<glyph unicode="w" horiz-adv-x="1540" d="M63 1096h158l197 -934h24l215 882q8 31 22 42.5t46 11.5h98q31 0 46 -11t22 -43l219 -882h25l194 934h148l-242 -1049q-6 -31 -20 -42t-46 -11h-108q-31 0 -44.5 11.5t-21.5 41.5l-215 871h-20l-215 -871q-6 -29 -20.5 -41t-45.5 -12h-108q-31 0 -45 10.5t-21 42.5z" />
<glyph unicode="x" horiz-adv-x="1042" d="M37 0l387 557l-381 539h176l299 -428h19l292 428h168l-381 -543l390 -553h-177l-309 440h-16l-301 -440h-166z" />
<glyph unicode="y" horiz-adv-x="1089" d="M51 1096h172l330 -889h14l301 889h162l-461 -1284q-25 -68 -65 -95.5t-113 -27.5q-69 0 -211 14v123h199q26 0 38.5 11t22.5 36l45 123z" />
<glyph unicode="z" horiz-adv-x="1032" d="M90 0v90l651 871h-622v135h825v-84l-657 -877h651v-135h-848z" />
<glyph unicode="{" horiz-adv-x="909" d="M137 516v94q185 19 228 58q24 24 24 75q0 29 -18.5 146.5t-18.5 177.5q0 74 52.5 150.5t220.5 236.5h116q-141 -165 -188 -242t-47 -127q0 -54 18.5 -167.5t18.5 -155.5q0 -88 -42.5 -129.5t-168.5 -67.5v-4q125 -25 168 -69t43 -134q0 -38 -18.5 -154t-18.5 -163 q0 -50 47 -127t188 -242h-116q-168 160 -220.5 236.5t-52.5 150.5q0 54 18.5 174t18.5 156q0 46 -22 68q-39 39 -230 59z" />
<glyph unicode="|" horiz-adv-x="653" d="M258 -328v1925h137v-1925h-137z" />
<glyph unicode="}" horiz-adv-x="909" d="M168 -328q141 165 188 242t47 127q0 47 -18 163t-18 154q0 90 42.5 134t165.5 69v4q-125 26 -166.5 67t-41.5 130q0 42 18 155.5t18 167.5q0 50 -47 127t-188 242h117q167 -160 219.5 -236.5t52.5 -150.5q0 -60 -18.5 -177.5t-18.5 -146.5q0 -50 25 -75q39 -39 225 -58 v-94q-192 -20 -227 -59q-23 -20 -23 -68q0 -36 18.5 -156t18.5 -174q0 -74 -52.5 -150.5t-219.5 -236.5h-117z" />
<glyph unicode="~" horiz-adv-x="909" d="M156 532v136q0 60 22 82t64 22h22q48 0 129 -33l238 -92l45 123h78v-135q0 -59 -23 -82t-63 -23h-21q-48 0 -131 33l-237 92l-43 -123h-80z" />
<glyph unicode="&#xa1;" horiz-adv-x="681" d="M244 0v76l55 948h68l71 -948v-76h-194zM248 1227v207h184v-207h-184z" />
<glyph unicode="&#xa2;" horiz-adv-x="1144" d="M150 723q0 226 20 319.5t74 147.5q34 34 85.5 48.5t137.5 14.5h61v187h127v-187h82q80 0 124 -14t73 -43q41 -39 58 -103.5t20 -199.5h-144q-4 98 -13 139t-28 60q-28 28 -118 28h-60v-796h62q93 0 120 30q20 19 29 64.5t10 144.5h144q-3 -147 -19.5 -210t-58.5 -105 q-58 -58 -197 -58h-84v-196h-127v196h-61q-86 0 -137.5 15t-85.5 49q-54 54 -74 148t-20 321zM299 723q0 -195 11.5 -268t37.5 -99q19 -19 46 -25.5t85 -6.5h56v796h-56q-58 0 -85 -6.5t-46 -23.5q-26 -28 -37.5 -100t-11.5 -267z" />
<glyph unicode="&#xa3;" horiz-adv-x="1368" d="M121 0v139h198v463h-196v133h196v260q0 162 21 242t70 129q40 40 99.5 55t176.5 15h207q96 0 151 -14t91 -50q47 -48 66 -123.5t20 -249.5h-156q-3 130 -15 184.5t-36 76.5q-19 20 -50.5 28t-93.5 8h-184q-122 0 -158 -36q-25 -25 -37 -79t-12 -171v-275h430v-133h-430 v-463h750v-139h-1108z" />
<glyph unicode="&#xa5;" horiz-adv-x="1351" d="M106 1434h177l389 -701h12l385 701h170l-440 -789h321v-133h-364v-512h-162v512h-371v133h324z" />
<glyph unicode="&#xa7;" horiz-adv-x="1341" d="M125 735q0 154 61 215q46 46 146 49q-29 57 -29 160q0 147 68 215q62 62 215 62h202q133 0 187 -54q38 -38 52 -92.5t17 -185.5h-147q-1 87 -9 120.5t-28 53.5q-27 27 -104 27h-158q-50 0 -73.5 -6.5t-39.5 -22.5q-30 -30 -30 -127q0 -82 30 -115q30 -27 111 -35l385 -34 q77 -6 116.5 -19t65.5 -39q56 -59 56 -211q0 -148 -62 -213q-48 -48 -147 -51q30 -59 30 -160q0 -146 -67 -213q-61 -61 -215 -61h-205q-129 0 -186 51q-37 38 -51 94t-17 187h147q1 -88 9 -122t26 -52q29 -29 105 -29h159q82 0 113 31t31 127q0 80 -31 114q-31 28 -113 35 l-383 35q-77 6 -116.5 18.5t-65.5 38.5q-29 29 -42 76t-13 133zM266 741q0 -49 5.5 -74.5t21.5 -43.5q28 -28 119 -33l520 -43q84 -8 110 18q35 35 35 125q0 91 -28 121q-25 28 -117 33l-522 43q-82 8 -109 -19q-35 -35 -35 -127z" />
<glyph unicode="&#xa8;" horiz-adv-x="1024" d="M238 1278v195h170v-195h-170zM616 1278v195h170v-195h-170z" />
<glyph unicode="&#xa9;" horiz-adv-x="1615" d="M182 717q0 271 36 408.5t99 201.5q52 55 126 81t219 26h290q146 0 219.5 -26t126.5 -81q40 -41 67.5 -103t47 -191.5t19.5 -315.5q0 -271 -36 -409t-98 -202q-52 -55 -126 -80.5t-220 -25.5h-290q-145 0 -219 25.5t-126 80.5q-62 64 -98.5 202.5t-36.5 408.5zM240 717 q0 -255 31.5 -386t88.5 -188q46 -49 112 -70.5t200 -21.5h272q134 0 198.5 20.5t110.5 69.5q58 60 90.5 190.5t32.5 385.5t-32.5 385t-90.5 188q-46 49 -111 70.5t-198 21.5h-272q-135 0 -201 -20.5t-111 -69.5q-57 -59 -88.5 -189t-31.5 -386zM510 727q0 130 8 205 t20.5 105.5t36.5 52.5q20 19 46.5 25.5t78.5 6.5h224q52 0 78 -6.5t45 -25.5q31 -29 43 -75.5t14 -137.5h-94q-2 114 -31 143q-16 16 -72 16h-190q-59 0 -74 -18q-11 -10 -17.5 -28t-12 -83.5t-5.5 -179.5t5.5 -179t12 -83t17.5 -29q18 -18 74 -18h190q54 0 72 18 q15 15 22.5 46t8.5 110h96q-5 -105 -16.5 -151t-42.5 -74q-19 -19 -45.5 -26t-77.5 -7h-224q-91 0 -125 31q-23 22 -35.5 52.5t-21 106t-8.5 203.5z" />
<glyph unicode="&#xaa;" horiz-adv-x="983" d="M168 864q0 139 49 185q28 28 76.5 41.5t144.5 13.5q130 0 250 -21v123q0 53 -3.5 75t-14.5 34q-16 16 -78 16h-170q-60 0 -78 -18q-12 -12 -18 -36.5t-7 -78.5h-116q1 82 12.5 124t38.5 69q26 26 57 34.5t90 8.5h209q63 0 95 -9t55 -30q26 -27 34.5 -66t8.5 -119v-565 h-115v98q-73 -60 -115 -80t-100 -20h-102q-60 0 -94 10.5t-60 36.5q-49 49 -49 174zM170 362v103h641v-103h-641zM287 879q0 -89 22 -111q26 -23 86 -23h97q52 0 91.5 14.5t104.5 55.5v195h-250q-106 0 -129 -23q-22 -25 -22 -108z" />
<glyph unicode="&#xab;" horiz-adv-x="1175" d="M123 498v100l315 328h174l-350 -377l352 -377h-176zM557 498v100l315 328h175l-351 -377l353 -377h-177z" />
<glyph unicode="&#xad;" horiz-adv-x="835" d="M129 575v154h578v-154h-578z" />
<glyph unicode="&#xae;" horiz-adv-x="929" d="M115 1038q0 257 75 336q31 31 70 45.5t119 14.5h172q80 0 118 -14t70 -46q76 -80 76 -336t-76 -336q-31 -31 -69.5 -45t-118.5 -14h-172q-80 0 -119 14t-70 45q-75 79 -75 336zM158 1038q0 -246 63 -309q25 -25 59.5 -36t100.5 -11h168q66 0 100.5 11t59.5 36 q63 63 63 309q0 247 -63 310q-25 25 -59.5 36t-100.5 11h-168q-66 0 -100.5 -11t-59.5 -36q-63 -63 -63 -310zM317 831v433h218q47 0 65 -21q27 -27 27 -100q0 -93 -62 -107v-2q33 -6 46 -23t14 -63q4 -99 8 -117h-58q-8 33 -8 111q0 47 -12 59q-16 13 -51 13h-131v-183h-56 zM373 1061h143q29 0 37 8q18 18 18 70q0 46 -16 67q-8 8 -37 8h-145v-153z" />
<glyph unicode="&#xaf;" horiz-adv-x="1024" d="M213 1262v124h598v-124h-598z" />
<glyph unicode="&#xb0;" horiz-adv-x="854" d="M133 1100q0 127 15.5 186t50.5 96q49 52 157 52h142q108 0 157 -52q36 -36 51 -94.5t15 -187.5t-15 -188t-51 -95q-48 -51 -157 -51h-142q-109 0 -157 51q-35 37 -50.5 96.5t-15.5 186.5zM252 1100q0 -164 33 -201q25 -25 84 -25h116q59 0 84 25q33 37 33 201 q0 163 -33 200q-25 25 -84 25h-116q-59 0 -84 -25q-33 -37 -33 -200z" />
<glyph unicode="&#xb1;" horiz-adv-x="1052" d="M127 219v135h799v-135h-799zM127 799v135h332v334h135v-334h332v-135h-332v-332h-135v332h-332z" />
<glyph unicode="&#xb4;" horiz-adv-x="1024" d="M287 1241v10l188 232h238v-10l-289 -232h-137z" />
<glyph unicode="&#xb6;" horiz-adv-x="1128" d="M106 1006q0 162 27 241.5t78 128.5q32 32 84.5 45t136.5 13h502v-1434h-162v569h-340q-83 0 -130 12t-81 46q-35 33 -57 69t-40 115.5t-18 194.5z" />
<glyph unicode="&#xb7;" horiz-adv-x="493" d="M150 545v211h194v-211h-194z" />
<glyph unicode="&#xb8;" horiz-adv-x="1024" d="M311 -324h215q43 0 58 15q16 13 16 55q0 44 -16 57q-15 15 -58 15h-90v90h111q96 0 127 -31q39 -39 39 -131t-39 -131q-33 -33 -131 -33h-142l-90 66v28z" />
<glyph unicode="&#xba;" horiz-adv-x="1036" d="M178 362v103h686v-103h-686zM180 1040q0 155 17 228.5t57 115.5q28 27 66.5 38.5t103.5 11.5h194q65 0 103.5 -11.5t66.5 -38.5q40 -42 57 -115.5t17 -228.5q0 -158 -17 -232t-57 -114q-27 -27 -65 -38t-105 -11h-194q-67 0 -105 11t-65 38q-40 40 -57 114t-17 232z M309 1040q0 -133 10 -187t29 -75q13 -13 32 -17.5t64 -4.5h154q45 0 64 4.5t32 17.5q19 21 29 74t10 188q0 132 -10 184.5t-29 73.5q-14 14 -33.5 19.5t-62.5 5.5h-154q-43 0 -62.5 -5.5t-33.5 -19.5q-19 -21 -29 -73.5t-10 -184.5z" />
<glyph unicode="&#xbb;" horiz-adv-x="1175" d="M125 172l352 377l-350 377h176l315 -328v-100l-315 -326h-178zM559 172l352 377l-350 377h176l316 -328v-100l-316 -326h-178z" />
<glyph unicode="&#xbf;" horiz-adv-x="1110" d="M113 350q0 125 15 181.5t62 103.5q23 24 67 47t146 68q83 39 111 67q22 22 31 62t12 135h123v-60q0 -107 -11 -157.5t-44 -83.5q-42 -42 -166 -97q-120 -51 -146 -77q-24 -24 -32.5 -60t-8.5 -123q0 -144 39 -186q32 -29 113 -29h281q48 0 70.5 6t39.5 23q19 18 27.5 71 t9.5 189h158q0 -177 -15 -252.5t-57 -118.5q-59 -59 -211 -59h-326q-150 0 -213 63q-41 41 -58 106.5t-17 180.5zM526 1227v207h185v-207h-185z" />
<glyph unicode="&#xc0;" horiz-adv-x="1329" d="M55 0l467 1386q9 33 24 43.5t54 10.5h129q38 0 52.5 -10.5t25.5 -43.5l467 -1386h-174l-142 438h-600l-141 -438h-162zM332 1800v10h237l189 -231v-10h-137zM403 575h510l-233 721h-43z" />
<glyph unicode="&#xc1;" horiz-adv-x="1329" d="M55 0l467 1386q9 33 24 43.5t54 10.5h129q38 0 52.5 -10.5t25.5 -43.5l467 -1386h-174l-142 438h-600l-141 -438h-162zM403 575h510l-233 721h-43zM563 1569v10l189 231h237v-10l-289 -231h-137z" />
<glyph unicode="&#xc2;" horiz-adv-x="1329" d="M55 0l467 1386q9 33 24 43.5t54 10.5h129q38 0 52.5 -10.5t25.5 -43.5l467 -1386h-174l-142 438h-600l-141 -438h-162zM336 1573v10l237 244h172l238 -244v-10h-121l-205 147l-202 -147h-119zM403 575h510l-233 721h-43z" />
<glyph unicode="&#xc3;" horiz-adv-x="1329" d="M55 0l467 1386q9 33 24 43.5t54 10.5h129q38 0 52.5 -10.5t25.5 -43.5l467 -1386h-174l-142 438h-600l-141 -438h-162zM360 1587v135q0 58 21 82q20 23 63 23h25q43 0 125 -31l242 -94l43 123h79v-135q0 -59 -20 -82t-64 -23h-24q-43 0 -125 31l-242 94l-43 -123h-80z M403 575h510l-233 721h-43z" />
<glyph unicode="&#xc4;" horiz-adv-x="1329" d="M55 0l467 1386q9 33 24 43.5t54 10.5h129q38 0 52.5 -10.5t25.5 -43.5l467 -1386h-174l-142 438h-600l-141 -438h-162zM385 1606v194h170v-194h-170zM403 575h510l-233 721h-43zM764 1606v194h170v-194h-170z" />
<glyph unicode="&#xc5;" horiz-adv-x="1320" d="M51 0l459 1360q-45 8 -72 39q-28 28 -38.5 62t-10.5 95t10.5 96t38.5 64q38 41 135 41h172q98 0 136 -41q28 -29 38.5 -64t10.5 -96t-10.5 -95t-38.5 -62q-25 -28 -70 -37l459 -1362h-174l-142 438h-600l-141 -438h-162zM399 575h510l-235 725h-39zM496 1556 q0 -71 22 -96q16 -16 68 -16h147q52 0 68 16q22 25 22 96q0 75 -22 97q-18 18 -68 18h-147q-50 0 -68 -18q-22 -22 -22 -97z" />
<glyph unicode="&#xc6;" horiz-adv-x="2000" d="M20 0l785 1378q19 32 36 44t54 12h985v-140h-782v-481h669v-137h-669v-537h776v-139h-936v477h-483l-269 -477h-166zM530 612h408v691h-16z" />
<glyph unicode="&#xc7;" horiz-adv-x="1374" d="M156 717q0 234 15 371.5t38 193t65 94.5q35 32 83.5 45t142.5 13h424q94 0 142 -13t83 -45q54 -50 78 -132.5t28 -256.5h-159q-4 135 -18.5 193.5t-39.5 83.5q-33 30 -131 30h-391q-98 0 -131 -30q-20 -20 -32.5 -57.5t-23 -160.5t-10.5 -329t10.5 -329t23 -160.5 t32.5 -57.5q34 -31 131 -31h391q59 -1 86 7t45 24q25 25 40 86t20 213h159q-7 -196 -30.5 -279t-77.5 -133q-35 -32 -83 -44.5t-142 -12.5h-424q-95 0 -143 12.5t-83 44.5q-41 39 -64.5 95t-38.5 193.5t-15 371.5zM492 -324h215q42 0 57 15q16 13 16 55q0 44 -16 57 q-15 15 -57 15h-91v90h111q96 0 127 -31q39 -39 39 -131t-39 -131q-33 -33 -131 -33h-141l-90 66v28z" />
<glyph unicode="&#xc8;" horiz-adv-x="1253" d="M195 0v1434h952v-140h-791v-481h678v-137h-678v-537h785v-139h-946zM340 1800v10h238l188 -231v-10h-137z" />
<glyph unicode="&#xc9;" horiz-adv-x="1253" d="M195 0v1434h952v-140h-791v-481h678v-137h-678v-537h785v-139h-946zM571 1569v10l189 231h237v-10l-288 -231h-138z" />
<glyph unicode="&#xca;" horiz-adv-x="1253" d="M195 0v1434h952v-140h-791v-481h678v-137h-678v-537h785v-139h-946zM344 1573v10l238 244h172l237 -244v-10h-121l-204 147l-203 -147h-119z" />
<glyph unicode="&#xcb;" horiz-adv-x="1253" d="M195 0v1434h952v-140h-791v-481h678v-137h-678v-537h785v-139h-946zM393 1606v194h170v-194h-170zM772 1606v194h170v-194h-170z" />
<glyph unicode="&#xcc;" horiz-adv-x="565" d="M-45 1800v10h238l188 -231v-10h-137zM203 0v1434h162v-1434h-162z" />
<glyph unicode="&#xcd;" horiz-adv-x="565" d="M186 1569v10l189 231h237v-10l-288 -231h-138zM203 0v1434h162v-1434h-162z" />
<glyph unicode="&#xce;" horiz-adv-x="565" d="M-41 1573v10l238 244h172l237 -244v-10h-121l-204 147l-203 -147h-119zM203 0v1434h162v-1434h-162z" />
<glyph unicode="&#xcf;" horiz-adv-x="565" d="M8 1606v194h170v-194h-170zM203 0v1434h162v-1434h-162zM387 1606v194h170v-194h-170z" />
<glyph unicode="&#xd0;" d="M6 657v136h201v641h647q113 0 182 -20.5t121 -67.5q70 -67 105.5 -210.5t35.5 -418.5t-35.5 -418.5t-105.5 -210.5q-52 -47 -121 -67.5t-182 -20.5h-647v657h-201zM369 139h485q75 0 113.5 10.5t68.5 40.5q48 45 73.5 161t25.5 364q0 251 -25.5 367t-73.5 161 q-32 30 -69.5 40.5t-112.5 10.5h-485v-501h331v-136h-331v-518z" />
<glyph unicode="&#xd1;" horiz-adv-x="1486" d="M195 0v1434h178q37 0 54.5 -11.5t35.5 -46.5l645 -1138h27v1196h157v-1434h-166q-39 0 -57 10.5t-35 44.5l-657 1170h-25v-1225h-157zM446 1587v135q0 58 21 82q20 23 63 23h25q43 0 125 -31l242 -94l43 123h79v-135q0 -59 -20 -82t-63 -23h-25q-43 0 -125 31l-242 94 l-43 -123h-80z" />
<glyph unicode="&#xd2;" d="M156 717q0 234 15 371.5t38 193t65 94.5q35 32 83.5 45t142.5 13h442q95 0 143.5 -13t81.5 -45q42 -39 65.5 -94.5t38.5 -193t15 -371.5t-15 -371.5t-38.5 -193.5t-65.5 -95q-33 -32 -81 -44.5t-144 -12.5h-442q-95 0 -143 12.5t-83 44.5q-41 39 -64.5 95t-38.5 193.5 t-15 371.5zM319 717q0 -206 10.5 -329t23 -160.5t32.5 -57.5q34 -31 131 -31h410q59 -1 86 7t45 24q21 19 33.5 57.5t22 160t9.5 329.5t-9.5 329.5t-22 160t-33.5 57.5q-33 30 -131 30h-410q-98 0 -131 -30q-20 -20 -32.5 -57.5t-23 -160.5t-10.5 -329zM391 1800v10h238 l188 -231v-10h-137z" />
<glyph unicode="&#xd3;" d="M156 717q0 234 15 371.5t38 193t65 94.5q35 32 83.5 45t142.5 13h442q95 0 143.5 -13t81.5 -45q42 -39 65.5 -94.5t38.5 -193t15 -371.5t-15 -371.5t-38.5 -193.5t-65.5 -95q-33 -32 -81 -44.5t-144 -12.5h-442q-95 0 -143 12.5t-83 44.5q-41 39 -64.5 95t-38.5 193.5 t-15 371.5zM319 717q0 -206 10.5 -329t23 -160.5t32.5 -57.5q34 -31 131 -31h410q59 -1 86 7t45 24q21 19 33.5 57.5t22 160t9.5 329.5t-9.5 329.5t-22 160t-33.5 57.5q-33 30 -131 30h-410q-98 0 -131 -30q-20 -20 -32.5 -57.5t-23 -160.5t-10.5 -329zM623 1569v10l188 231 h238v-10l-289 -231h-137z" />
<glyph unicode="&#xd4;" d="M156 717q0 234 15 371.5t38 193t65 94.5q35 32 83.5 45t142.5 13h442q95 0 143.5 -13t81.5 -45q42 -39 65.5 -94.5t38.5 -193t15 -371.5t-15 -371.5t-38.5 -193.5t-65.5 -95q-33 -32 -81 -44.5t-144 -12.5h-442q-95 0 -143 12.5t-83 44.5q-41 39 -64.5 95t-38.5 193.5 t-15 371.5zM319 717q0 -206 10.5 -329t23 -160.5t32.5 -57.5q34 -31 131 -31h410q59 -1 86 7t45 24q21 19 33.5 57.5t22 160t9.5 329.5t-9.5 329.5t-22 160t-33.5 57.5q-33 30 -131 30h-410q-98 0 -131 -30q-20 -20 -32.5 -57.5t-23 -160.5t-10.5 -329zM397 1573v10l238 244 h172l237 -244v-10h-120l-205 147l-203 -147h-119z" />
<glyph unicode="&#xd5;" d="M156 717q0 234 15 371.5t38 193t65 94.5q35 32 83.5 45t142.5 13h442q95 0 143.5 -13t81.5 -45q42 -39 65.5 -94.5t38.5 -193t15 -371.5t-15 -371.5t-38.5 -193.5t-65.5 -95q-33 -32 -81 -44.5t-144 -12.5h-442q-95 0 -143 12.5t-83 44.5q-41 39 -64.5 95t-38.5 193.5 t-15 371.5zM319 717q0 -206 10.5 -329t23 -160.5t32.5 -57.5q34 -31 131 -31h410q59 -1 86 7t45 24q21 19 33.5 57.5t22 160t9.5 329.5t-9.5 329.5t-22 160t-33.5 57.5q-33 30 -131 30h-410q-98 0 -131 -30q-20 -20 -32.5 -57.5t-23 -160.5t-10.5 -329zM422 1587v135 q0 59 20 82t64 23h24q43 0 125 -31l242 -94l43 123h80v-135q0 -58 -21 -82q-20 -23 -63 -23h-25q-43 0 -125 31l-241 94l-43 -123h-80z" />
<glyph unicode="&#xd6;" d="M156 717q0 234 15 371.5t38 193t65 94.5q35 32 83.5 45t142.5 13h442q95 0 143.5 -13t81.5 -45q42 -39 65.5 -94.5t38.5 -193t15 -371.5t-15 -371.5t-38.5 -193.5t-65.5 -95q-33 -32 -81 -44.5t-144 -12.5h-442q-95 0 -143 12.5t-83 44.5q-41 39 -64.5 95t-38.5 193.5 t-15 371.5zM319 717q0 -206 10.5 -329t23 -160.5t32.5 -57.5q34 -31 131 -31h410q59 -1 86 7t45 24q21 19 33.5 57.5t22 160t9.5 329.5t-9.5 329.5t-22 160t-33.5 57.5q-33 30 -131 30h-410q-98 0 -131 -30q-20 -20 -32.5 -57.5t-23 -160.5t-10.5 -329zM446 1606v194h170 v-194h-170zM825 1606v194h170v-194h-170z" />
<glyph unicode="&#xd7;" horiz-adv-x="1052" d="M172 485l258 258l-258 258l96 97l258 -260l258 260l95 -97l-258 -258l258 -258l-95 -96l-258 260l-258 -260z" />
<glyph unicode="&#xd8;" d="M156 717q0 234 15 371.5t38 193t65 94.5q35 32 83.5 45t142.5 13h442h43l53 108h150l-66 -135q21 -11 45 -31q42 -39 65.5 -94.5t38.5 -193t15 -371.5t-15 -371.5t-38.5 -193.5t-65.5 -95q-33 -32 -81 -44.5t-144 -12.5h-442h-45l-52 -109h-149l63 136q-26 13 -43 30 q-41 39 -64.5 95t-38.5 193.5t-15 371.5zM319 717q0 -206 10.5 -329t23 -160.5t32.5 -57.5l4 -6l533 1130h-406q-98 0 -131 -30q-20 -20 -32.5 -57.5t-23 -160.5t-10.5 -329zM520 139h406q59 -1 86 7t45 24q21 19 33.5 57.5t22 160t9.5 329.5t-9.5 329.5t-22 160t-33.5 57.5 l-6 6z" />
<glyph unicode="&#xd9;" horiz-adv-x="1480" d="M195 584v850h161v-879q0 -194 15 -268.5t47 -106.5q21 -21 61.5 -30t138.5 -9h248q98 0 137.5 8.5t61.5 30.5q32 33 45.5 105t13.5 270v879h160v-850q0 -170 -11 -270t-31.5 -150t-59.5 -90q-42 -40 -109 -57t-188 -17h-297q-119 0 -185 17t-106 57q-39 39 -59.5 88 t-31.5 149.5t-11 272.5zM410 1800v10h237l189 -231v-10h-138z" />
<glyph unicode="&#xda;" horiz-adv-x="1480" d="M195 584v850h161v-879q0 -194 15 -268.5t47 -106.5q21 -21 61.5 -30t138.5 -9h248q98 0 137.5 8.5t61.5 30.5q32 33 45.5 105t13.5 270v879h160v-850q0 -170 -11 -270t-31.5 -150t-59.5 -90q-42 -40 -109 -57t-188 -17h-297q-119 0 -185 17t-106 57q-39 39 -59.5 88 t-31.5 149.5t-11 272.5zM641 1569v10l188 231h238v-10l-289 -231h-137z" />
<glyph unicode="&#xdb;" horiz-adv-x="1480" d="M195 584v850h161v-879q0 -194 15 -268.5t47 -106.5q21 -21 61.5 -30t138.5 -9h248q98 0 137.5 8.5t61.5 30.5q32 33 45.5 105t13.5 270v879h160v-850q0 -170 -11 -270t-31.5 -150t-59.5 -90q-42 -40 -109 -57t-188 -17h-297q-119 0 -185 17t-106 57q-39 39 -59.5 88 t-31.5 149.5t-11 272.5zM414 1573v10l237 244h172l238 -244v-10h-121l-205 147l-203 -147h-118z" />
<glyph unicode="&#xdc;" horiz-adv-x="1480" d="M195 584v850h161v-879q0 -194 15 -268.5t47 -106.5q21 -21 61.5 -30t138.5 -9h248q98 0 137.5 8.5t61.5 30.5q32 33 45.5 105t13.5 270v879h160v-850q0 -170 -11 -270t-31.5 -150t-59.5 -90q-42 -40 -109 -57t-188 -17h-297q-119 0 -185 17t-106 57q-39 39 -59.5 88 t-31.5 149.5t-11 272.5zM463 1606v194h170v-194h-170zM842 1606v194h170v-194h-170z" />
<glyph unicode="&#xdd;" horiz-adv-x="1206" d="M25 1434h176l399 -701h12l396 701h174l-496 -865v-569h-162v567zM508 1569v10l188 231h238v-10l-289 -231h-137z" />
<glyph unicode="&#xde;" horiz-adv-x="1296" d="M195 0v1434h161v-285h521q84 0 135.5 -12.5t83.5 -44.5q51 -48 77.5 -129.5t26.5 -249.5q0 -163 -26.5 -243t-77.5 -128q-32 -32 -83.5 -44.5t-135.5 -12.5h-521v-285h-161zM356 424h486q58 0 88 7t49 24q57 53 57 262t-57 262q-19 17 -49 24t-88 7h-486v-586z" />
<glyph unicode="&#xdf;" horiz-adv-x="1280" d="M80 965v131h186v37q0 103 18.5 163t57.5 99q34 34 81 48.5t126 14.5h250q153 0 213 -57q43 -43 61.5 -110t18.5 -191q0 -142 -40 -207t-132 -92q128 -17 177.5 -96t49.5 -271q0 -167 -20 -245.5t-66 -122.5q-66 -66 -234 -66h-239v129h207q114 0 149 35q23 23 35 79.5 t12 194.5q0 122 -11.5 177t-33.5 77q-21 21 -52 29t-97 8h-168v135h131q98 0 133 35q45 45 45 201q0 151 -45 196q-33 33 -129 33h-182q-88 0 -121 -33q-43 -43 -43 -163v-1133h-152v965h-186z" />
<glyph unicode="&#xe0;" horiz-adv-x="1171" d="M123 297q0 183 67 250q39 39 103.5 56.5t212.5 17.5q180 0 346 -27v182q0 135 -31 166q-27 27 -114 27h-226q-54 0 -81.5 -6.5t-45.5 -24.5q-19 -21 -27.5 -57.5t-9.5 -110.5h-147q1 113 17.5 171t52.5 95q34 34 79 47t123 13h295q87 0 132.5 -13.5t74.5 -44.5 q34 -34 45.5 -87t11.5 -165v-786h-149v139q-107 -87 -162 -114t-137 -27h-160q-147 0 -205 61q-33 31 -49 85t-16 153zM272 317q0 -72 7 -107t26 -52q34 -31 119 -31h154q73 0 128.5 20t145.5 78v279h-356q-93 0 -129.5 -8t-57.5 -29q-22 -22 -29.5 -52.5t-7.5 -97.5z M272 1473v10h238l188 -232v-10h-137z" />
<glyph unicode="&#xe1;" horiz-adv-x="1171" d="M123 297q0 183 67 250q39 39 103.5 56.5t212.5 17.5q180 0 346 -27v182q0 135 -31 166q-27 27 -114 27h-226q-54 0 -81.5 -6.5t-45.5 -24.5q-19 -21 -27.5 -57.5t-9.5 -110.5h-147q1 113 17.5 171t52.5 95q34 34 79 47t123 13h295q87 0 132.5 -13.5t74.5 -44.5 q34 -34 45.5 -87t11.5 -165v-786h-149v139q-107 -87 -162 -114t-137 -27h-160q-147 0 -205 61q-33 31 -49 85t-16 153zM272 317q0 -72 7 -107t26 -52q34 -31 119 -31h154q73 0 128.5 20t145.5 78v279h-356q-93 0 -129.5 -8t-57.5 -29q-22 -22 -29.5 -52.5t-7.5 -97.5z M504 1241v10l188 232h238v-10l-289 -232h-137z" />
<glyph unicode="&#xe2;" horiz-adv-x="1171" d="M123 297q0 183 67 250q39 39 103.5 56.5t212.5 17.5q180 0 346 -27v182q0 135 -31 166q-27 27 -114 27h-226q-54 0 -81.5 -6.5t-45.5 -24.5q-19 -21 -27.5 -57.5t-9.5 -110.5h-147q1 113 17.5 171t52.5 95q34 34 79 47t123 13h295q87 0 132.5 -13.5t74.5 -44.5 q34 -34 45.5 -87t11.5 -165v-786h-149v139q-107 -87 -162 -114t-137 -27h-160q-147 0 -205 61q-33 31 -49 85t-16 153zM272 317q0 -72 7 -107t26 -52q34 -31 119 -31h154q73 0 128.5 20t145.5 78v279h-356q-93 0 -129.5 -8t-57.5 -29q-22 -22 -29.5 -52.5t-7.5 -97.5z M279 1245v10l237 244h172l238 -244v-10h-121l-205 148l-203 -148h-118z" />
<glyph unicode="&#xe3;" horiz-adv-x="1171" d="M123 297q0 183 67 250q39 39 103.5 56.5t212.5 17.5q180 0 346 -27v182q0 135 -31 166q-27 27 -114 27h-226q-54 0 -81.5 -6.5t-45.5 -24.5q-19 -21 -27.5 -57.5t-9.5 -110.5h-147q1 113 17.5 171t52.5 95q34 34 79 47t123 13h295q87 0 132.5 -13.5t74.5 -44.5 q34 -34 45.5 -87t11.5 -165v-786h-149v139q-107 -87 -162 -114t-137 -27h-160q-147 0 -205 61q-33 31 -49 85t-16 153zM272 317q0 -72 7 -107t26 -52q34 -31 119 -31h154q73 0 128.5 20t145.5 78v279h-356q-93 0 -129.5 -8t-57.5 -29q-22 -22 -29.5 -52.5t-7.5 -97.5z M303 1260v135q0 58 21 82q19 22 63 22h25q43 0 125 -31l241 -94l43 123h80v-135q0 -59 -20 -82t-64 -23h-24q-43 0 -125 31l-242 94l-43 -122h-80z" />
<glyph unicode="&#xe4;" horiz-adv-x="1171" d="M123 297q0 183 67 250q39 39 103.5 56.5t212.5 17.5q180 0 346 -27v182q0 135 -31 166q-27 27 -114 27h-226q-54 0 -81.5 -6.5t-45.5 -24.5q-19 -21 -27.5 -57.5t-9.5 -110.5h-147q1 113 17.5 171t52.5 95q34 34 79 47t123 13h295q87 0 132.5 -13.5t74.5 -44.5 q34 -34 45.5 -87t11.5 -165v-786h-149v139q-107 -87 -162 -114t-137 -27h-160q-147 0 -205 61q-33 31 -49 85t-16 153zM272 317q0 -72 7 -107t26 -52q34 -31 119 -31h154q73 0 128.5 20t145.5 78v279h-356q-93 0 -129.5 -8t-57.5 -29q-22 -22 -29.5 -52.5t-7.5 -97.5z M328 1278v195h170v-195h-170zM707 1278v195h170v-195h-170z" />
<glyph unicode="&#xe5;" horiz-adv-x="1171" d="M123 297q0 183 67 250q39 39 103.5 56.5t212.5 17.5q180 0 346 -27v182q0 135 -31 166q-27 27 -114 27h-226q-54 0 -81.5 -6.5t-45.5 -24.5q-19 -21 -27.5 -57.5t-9.5 -110.5h-147q1 113 17.5 171t52.5 95q34 34 79 47t123 13h295q87 0 132.5 -13.5t74.5 -44.5 q34 -34 45.5 -87t11.5 -165v-786h-149v139q-107 -87 -162 -114t-137 -27h-160q-147 0 -205 61q-33 31 -49 85t-16 153zM272 317q0 -72 7 -107t26 -52q34 -31 119 -31h154q73 0 128.5 20t145.5 78v279h-356q-93 0 -129.5 -8t-57.5 -29q-22 -22 -29.5 -52.5t-7.5 -97.5z M332 1448q0 61 10.5 96t38.5 64q38 41 135 41h172q97 0 135 -41q28 -29 38.5 -64t10.5 -96q0 -62 -10.5 -96t-38.5 -62q-40 -43 -135 -43h-172q-95 0 -135 43q-28 28 -38.5 62t-10.5 96zM438 1448q0 -70 23 -96q17 -17 67 -17h148q50 0 67 17q23 26 23 96q0 73 -23 96 q-19 19 -67 19h-148q-48 0 -67 -19q-23 -23 -23 -96z" />
<glyph unicode="&#xe6;" horiz-adv-x="1892" d="M127 297q0 182 68 250q39 39 103 56.5t212 17.5q192 0 346 -25v180q0 135 -31 166q-27 27 -114 27h-222q-55 0 -83 -6.5t-46 -24.5q-18 -20 -25.5 -55.5t-10.5 -112.5h-152q3 118 18.5 173.5t51.5 92.5q33 33 78 46.5t122 13.5h275q85 0 129.5 -13.5t75.5 -44.5 q16 -20 22 -30l25 26q35 35 85 48.5t136 13.5h254q161 0 221 -60q54 -56 74 -150.5t20 -322.5v-39q0 -24 -24 -24h-731q1 -177 12.5 -244t36.5 -92q19 -19 45.5 -25t85.5 -6h272q50 0 76 7t43 24q19 19 27.5 54.5t9.5 117.5h147q-3 -123 -19 -180.5t-57 -98.5 q-31 -31 -76 -44t-122 -13h-314q-86 0 -136.5 13.5t-84.5 47.5q-44 41 -63 105q-128 -106 -185.5 -137t-144.5 -31h-160q-146 0 -204 61q-33 31 -49.5 85t-16.5 153zM276 317q0 -72 7 -107t26 -52q34 -31 119 -31h154q75 0 133 22.5t155 86.5q-14 88 -14 268h-356 q-93 0 -129.5 -8t-57.5 -29q-22 -22 -29.5 -52.5t-7.5 -97.5zM1004 621h606q-1 159 -13 222.5t-38 88.5q-18 18 -46 25.5t-86 7.5h-243q-58 0 -85.5 -7.5t-47.5 -27.5q-25 -25 -35.5 -85.5t-11.5 -223.5z" />
<glyph unicode="&#xe7;" horiz-adv-x="1130" d="M137 549q0 239 20 335t74 150q35 35 86 48.5t138 13.5h286q81 0 123.5 -12.5t73.5 -43.5q39 -39 56 -104t20 -199h-148q-4 99 -13 137.5t-28 57.5q-17 17 -40 23t-74 6h-240q-59 0 -87 -6.5t-46 -24.5q-27 -27 -38 -100t-11 -281q0 -209 11 -282.5t38 -100.5 q19 -18 47 -24.5t86 -6.5h240q51 0 75 6t43 23q20 20 29 63.5t12 143.5h148q-4 -145 -21.5 -210t-58.5 -106q-30 -30 -74 -42.5t-121 -12.5h-288q-87 0 -138.5 13.5t-85.5 47.5q-54 54 -74 151t-20 337zM352 -324h215q43 0 58 15q16 13 16 55q0 44 -16 57q-15 15 -58 15h-90 v90h111q96 0 127 -31q39 -39 39 -131t-39 -131q-33 -33 -131 -33h-142l-90 66v28z" />
<glyph unicode="&#xe8;" horiz-adv-x="1177" d="M137 549q0 239 20 335t74 150q35 35 86 48.5t138 13.5h274q161 0 221 -60q54 -56 74 -151t20 -326v-35q0 -24 -24 -24h-731q1 -177 12.5 -244t36.5 -92q19 -19 45.5 -25t85.5 -6h272q50 0 76 7t43 24q19 19 27.5 54.5t9.5 117.5h147q-3 -124 -19 -181.5t-56 -97.5 q-31 -31 -76 -44t-123 -13h-315q-87 0 -138.5 13.5t-85.5 47.5q-54 54 -74 151t-20 337zM268 1473v10h238l188 -232v-10h-137zM289 621h606q-1 160 -12.5 223t-38.5 88q-18 18 -45.5 25.5t-85.5 7.5h-244q-58 0 -85.5 -7.5t-47.5 -27.5q-25 -25 -35.5 -85.5t-11.5 -223.5z " />
<glyph unicode="&#xe9;" horiz-adv-x="1177" d="M137 549q0 239 20 335t74 150q35 35 86 48.5t138 13.5h274q161 0 221 -60q54 -56 74 -151t20 -326v-35q0 -24 -24 -24h-731q1 -177 12.5 -244t36.5 -92q19 -19 45.5 -25t85.5 -6h272q50 0 76 7t43 24q19 19 27.5 54.5t9.5 117.5h147q-3 -124 -19 -181.5t-56 -97.5 q-31 -31 -76 -44t-123 -13h-315q-87 0 -138.5 13.5t-85.5 47.5q-54 54 -74 151t-20 337zM289 621h606q-1 160 -12.5 223t-38.5 88q-18 18 -45.5 25.5t-85.5 7.5h-244q-58 0 -85.5 -7.5t-47.5 -27.5q-25 -25 -35.5 -85.5t-11.5 -223.5zM498 1241v10l188 232h238v-10 l-289 -232h-137z" />
<glyph unicode="&#xea;" horiz-adv-x="1177" d="M137 549q0 239 20 335t74 150q35 35 86 48.5t138 13.5h274q161 0 221 -60q54 -56 74 -151t20 -326v-35q0 -24 -24 -24h-731q1 -177 12.5 -244t36.5 -92q19 -19 45.5 -25t85.5 -6h272q50 0 76 7t43 24q19 19 27.5 54.5t9.5 117.5h147q-3 -124 -19 -181.5t-56 -97.5 q-31 -31 -76 -44t-123 -13h-315q-87 0 -138.5 13.5t-85.5 47.5q-54 54 -74 151t-20 337zM272 1245v10l238 244h172l238 -244v-10h-121l-205 148l-203 -148h-119zM289 621h606q-1 160 -12.5 223t-38.5 88q-18 18 -45.5 25.5t-85.5 7.5h-244q-58 0 -85.5 -7.5t-47.5 -27.5 q-25 -25 -35.5 -85.5t-11.5 -223.5z" />
<glyph unicode="&#xeb;" horiz-adv-x="1177" d="M137 549q0 239 20 335t74 150q35 35 86 48.5t138 13.5h274q161 0 221 -60q54 -56 74 -151t20 -326v-35q0 -24 -24 -24h-731q1 -177 12.5 -244t36.5 -92q19 -19 45.5 -25t85.5 -6h272q50 0 76 7t43 24q19 19 27.5 54.5t9.5 117.5h147q-3 -124 -19 -181.5t-56 -97.5 q-31 -31 -76 -44t-123 -13h-315q-87 0 -138.5 13.5t-85.5 47.5q-54 54 -74 151t-20 337zM289 621h606q-1 160 -12.5 223t-38.5 88q-18 18 -45.5 25.5t-85.5 7.5h-244q-58 0 -85.5 -7.5t-47.5 -27.5q-25 -25 -35.5 -85.5t-11.5 -223.5zM322 1278v195h170v-195h-170zM700 1278 v195h170v-195h-170z" />
<glyph unicode="&#xec;" horiz-adv-x="507" d="M-74 1473v10h238l188 -232v-10h-137zM178 0v1096h152v-1096h-152z" />
<glyph unicode="&#xed;" horiz-adv-x="507" d="M158 1241v10l188 232h238v-10l-289 -232h-137zM178 0v1096h152v-1096h-152z" />
<glyph unicode="&#xee;" horiz-adv-x="507" d="M-70 1245v10l238 244h172l238 -244v-10h-121l-205 148l-203 -148h-119zM178 0v1096h152v-1096h-152z" />
<glyph unicode="&#xef;" horiz-adv-x="507" d="M-20 1278v195h170v-195h-170zM178 0v1096h152v-1096h-152zM358 1278v195h170v-195h-170z" />
<glyph unicode="&#xf0;" horiz-adv-x="1214" d="M139 498q0 203 19.5 292t74.5 142q33 34 84.5 47.5t137.5 13.5h141q82 0 140 -28t167 -117q-5 132 -24 194q-22 60 -121 187l-293 -101v119l221 74l-125 154h127l111 -115l274 94v-117l-192 -65q117 -130 145 -213q17 -46 24 -152.5t7 -345.5q0 -251 -17.5 -347 t-74.5 -153q-34 -34 -85.5 -47.5t-138.5 -13.5h-286q-86 0 -137.5 13.5t-84.5 47.5q-55 53 -74.5 142.5t-19.5 294.5zM291 498q0 -172 11 -238.5t38 -93.5q19 -18 46.5 -24.5t84.5 -6.5h254q57 0 84.5 6.5t46.5 24.5q29 29 39 105t10 290v197q-89 57 -146.5 79.5 t-125.5 22.5h-162q-59 0 -85.5 -6t-45.5 -25q-27 -27 -38 -93t-11 -238z" />
<glyph unicode="&#xf1;" horiz-adv-x="1218" d="M176 0v1096h152v-146q112 91 169 119.5t142 28.5h160q74 0 116 -13.5t74 -44.5q31 -33 44.5 -82.5t13.5 -136.5v-821h-152v811q0 88 -33 121q-18 18 -41.5 24.5t-81.5 6.5h-143q-68 0 -124 -21t-144 -78v-864h-152zM319 1260v135q0 58 21 82q19 22 63 22h25q43 0 125 -31 l242 -94l43 123h80v-135q0 -58 -21 -82q-20 -23 -63 -23h-25q-43 0 -125 31l-242 94l-43 -122h-80z" />
<glyph unicode="&#xf2;" horiz-adv-x="1196" d="M137 549q0 239 20 335t74 150q35 35 86 48.5t138 13.5h286q86 0 137.5 -14t84.5 -48q56 -54 76 -150t20 -335q0 -241 -20 -337.5t-76 -150.5q-33 -34 -84.5 -47.5t-137.5 -13.5h-286q-87 0 -138.5 13.5t-85.5 47.5q-54 54 -74 151t-20 337zM268 1473v10h238l188 -232v-10 h-137zM289 549q0 -209 11 -282.5t38 -100.5q19 -18 47 -24.5t86 -6.5h254q58 0 86 7t45 24q28 28 39.5 101.5t11.5 281.5q0 206 -11.5 279.5t-39.5 101.5q-17 18 -44.5 24.5t-86.5 6.5h-254q-59 0 -87 -6.5t-46 -24.5q-27 -27 -38 -100t-11 -281z" />
<glyph unicode="&#xf3;" horiz-adv-x="1196" d="M137 549q0 239 20 335t74 150q35 35 86 48.5t138 13.5h286q86 0 137.5 -14t84.5 -48q56 -54 76 -150t20 -335q0 -241 -20 -337.5t-76 -150.5q-33 -34 -84.5 -47.5t-137.5 -13.5h-286q-87 0 -138.5 13.5t-85.5 47.5q-54 54 -74 151t-20 337zM289 549q0 -209 11 -282.5 t38 -100.5q19 -18 47 -24.5t86 -6.5h254q58 0 86 7t45 24q28 28 39.5 101.5t11.5 281.5q0 206 -11.5 279.5t-39.5 101.5q-17 18 -44.5 24.5t-86.5 6.5h-254q-59 0 -87 -6.5t-46 -24.5q-27 -27 -38 -100t-11 -281zM498 1241v10l188 232h238v-10l-289 -232h-137z" />
<glyph unicode="&#xf4;" horiz-adv-x="1196" d="M137 549q0 239 20 335t74 150q35 35 86 48.5t138 13.5h286q86 0 137.5 -14t84.5 -48q56 -54 76 -150t20 -335q0 -241 -20 -337.5t-76 -150.5q-33 -34 -84.5 -47.5t-137.5 -13.5h-286q-87 0 -138.5 13.5t-85.5 47.5q-54 54 -74 151t-20 337zM272 1245v10l238 244h172 l238 -244v-10h-121l-205 148l-203 -148h-119zM289 549q0 -209 11 -282.5t38 -100.5q19 -18 47 -24.5t86 -6.5h254q58 0 86 7t45 24q28 28 39.5 101.5t11.5 281.5q0 206 -11.5 279.5t-39.5 101.5q-17 18 -44.5 24.5t-86.5 6.5h-254q-59 0 -87 -6.5t-46 -24.5 q-27 -27 -38 -100t-11 -281z" />
<glyph unicode="&#xf5;" horiz-adv-x="1196" d="M137 549q0 239 20 335t74 150q35 35 86 48.5t138 13.5h286q86 0 137.5 -14t84.5 -48q56 -54 76 -150t20 -335q0 -241 -20 -337.5t-76 -150.5q-33 -34 -84.5 -47.5t-137.5 -13.5h-286q-87 0 -138.5 13.5t-85.5 47.5q-54 54 -74 151t-20 337zM289 549q0 -209 11 -282.5 t38 -100.5q19 -18 47 -24.5t86 -6.5h254q58 0 86 7t45 24q28 28 39.5 101.5t11.5 281.5q0 206 -11.5 279.5t-39.5 101.5q-17 18 -44.5 24.5t-86.5 6.5h-254q-59 0 -87 -6.5t-46 -24.5q-27 -27 -38 -100t-11 -281zM297 1260v135q0 59 20 82q19 22 64 22h25q42 0 124 -31 l242 -94l43 123h80v-135q0 -58 -21 -82q-20 -23 -63 -23h-25q-42 0 -124 31l-242 94l-43 -122h-80z" />
<glyph unicode="&#xf6;" horiz-adv-x="1196" d="M137 549q0 239 20 335t74 150q35 35 86 48.5t138 13.5h286q86 0 137.5 -14t84.5 -48q56 -54 76 -150t20 -335q0 -241 -20 -337.5t-76 -150.5q-33 -34 -84.5 -47.5t-137.5 -13.5h-286q-87 0 -138.5 13.5t-85.5 47.5q-54 54 -74 151t-20 337zM289 549q0 -209 11 -282.5 t38 -100.5q19 -18 47 -24.5t86 -6.5h254q58 0 86 7t45 24q28 28 39.5 101.5t11.5 281.5q0 206 -11.5 279.5t-39.5 101.5q-17 18 -44.5 24.5t-86.5 6.5h-254q-59 0 -87 -6.5t-46 -24.5q-27 -27 -38 -100t-11 -281zM322 1278v195h170v-195h-170zM700 1278v195h170v-195h-170z " />
<glyph unicode="&#xf7;" horiz-adv-x="1052" d="M127 676v135h799v-135h-799zM434 326v186h182v-186h-182zM434 975v186h182v-186h-182z" />
<glyph unicode="&#xf8;" horiz-adv-x="1202" d="M139 549q0 238 20.5 334.5t76.5 150.5q33 34 84 48t137 14h286q28 0 74 -4l62 116h145l-84 -151l27 -23q54 -54 74 -150t20 -335q0 -240 -20 -337t-74 -151q-34 -34 -85.5 -47.5t-138.5 -13.5h-286q-55 0 -80 2l-55 -104h-146l80 143q-11 9 -20 20q-56 54 -76.5 151 t-20.5 337zM291 549q0 -196 10.5 -272t34.5 -105l412 789h-21h-254q-59 0 -86.5 -6.5t-44.5 -24.5q-28 -28 -39.5 -101.5t-11.5 -279.5zM446 135h27h254q58 0 86 6.5t47 24.5q27 27 38 100.5t11 282.5q0 203 -10.5 277.5t-36.5 101.5z" />
<glyph unicode="&#xf9;" horiz-adv-x="1218" d="M172 274v822h152v-811q0 -90 32 -119q19 -19 43.5 -26t81.5 -7h144q68 0 124 20.5t144 77.5v865h151v-1096h-151v147q-112 -92 -170.5 -120.5t-142.5 -28.5h-160q-75 0 -117 13.5t-72 45.5q-32 31 -45.5 80t-13.5 137zM283 1473v10h237l189 -232v-10h-138z" />
<glyph unicode="&#xfa;" horiz-adv-x="1218" d="M172 274v822h152v-811q0 -90 32 -119q19 -19 43.5 -26t81.5 -7h144q68 0 124 20.5t144 77.5v865h151v-1096h-151v147q-112 -92 -170.5 -120.5t-142.5 -28.5h-160q-75 0 -117 13.5t-72 45.5q-32 31 -45.5 80t-13.5 137zM512 1241v10l188 232h238v-10l-289 -232h-137z" />
<glyph unicode="&#xfb;" horiz-adv-x="1218" d="M172 274v822h152v-811q0 -90 32 -119q19 -19 43.5 -26t81.5 -7h144q68 0 124 20.5t144 77.5v865h151v-1096h-151v147q-112 -92 -170.5 -120.5t-142.5 -28.5h-160q-75 0 -117 13.5t-72 45.5q-32 31 -45.5 80t-13.5 137zM287 1245v10l237 244h172l238 -244v-10h-121 l-205 148l-202 -148h-119z" />
<glyph unicode="&#xfc;" horiz-adv-x="1218" d="M172 274v822h152v-811q0 -90 32 -119q19 -19 43.5 -26t81.5 -7h144q68 0 124 20.5t144 77.5v865h151v-1096h-151v147q-112 -92 -170.5 -120.5t-142.5 -28.5h-160q-75 0 -117 13.5t-72 45.5q-32 31 -45.5 80t-13.5 137zM336 1278v195h170v-195h-170zM715 1278v195h170 v-195h-170z" />
<glyph unicode="&#xfd;" horiz-adv-x="1089" d="M51 1096h172l330 -889h14l301 889h162l-461 -1284q-25 -68 -65 -95.5t-113 -27.5q-69 0 -211 14v123h199q26 0 38.5 11t22.5 36l45 123zM459 1241v10l188 232h238v-10l-289 -232h-137z" />
<glyph unicode="&#xfe;" horiz-adv-x="1222" d="M176 -307v1782h152v-525q112 92 169.5 120t141.5 28h127q92 0 144.5 -16t88.5 -52q33 -35 50.5 -82t26.5 -141t9 -258q0 -165 -9 -259.5t-26 -141.5t-51 -82q-36 -36 -88.5 -52t-144.5 -16h-127q-84 0 -143.5 28.5t-167.5 118.5v-452h-152zM328 233q88 -56 146 -78 t126 -22h135q64 0 96.5 9t53.5 30q30 30 39.5 102.5t9.5 274.5q0 200 -9.5 272.5t-39.5 102.5q-21 21 -53.5 30t-96.5 9h-139q-68 0 -125 -22t-143 -77v-631z" />
<glyph unicode="&#xff;" horiz-adv-x="1089" d="M51 1096h172l330 -889h14l301 889h162l-461 -1284q-25 -68 -65 -95.5t-113 -27.5q-69 0 -211 14v123h199q26 0 38.5 11t22.5 36l45 123zM283 1278v195h170v-195h-170zM662 1278v195h169v-195h-169z" />
<glyph unicode="&#x152;" horiz-adv-x="2131" d="M145 717q0 275 35 418.5t105 210.5q52 47 121 67.5t184 20.5h1427v-140h-782v-481h670v-137h-670v-537h776v-139h-1421q-115 0 -184 20.5t-121 67.5q-70 67 -105 210.5t-35 418.5zM309 715q0 -249 25 -365t72 -160q30 -30 69.5 -40.5t114.5 -10.5h483v1155h-483 q-75 0 -113.5 -10.5t-70.5 -40.5q-48 -44 -72.5 -160t-24.5 -368z" />
<glyph unicode="&#x153;" horiz-adv-x="1951" d="M137 549q0 239 20 335t74 150q35 35 86 48.5t138 13.5h268q85 0 134.5 -13.5t84.5 -48.5q20 -20 41 -55q14 28 41 55q35 35 85 48.5t136 13.5h256q161 0 221 -60q55 -55 75 -150t20 -327v-35q0 -24 -25 -24h-731q1 -174 13 -242t36 -94q19 -19 45.5 -25t85.5 -6h272 q52 0 76.5 6.5t42.5 24.5q19 19 27.5 54.5t9.5 117.5h148q-3 -123 -19 -180.5t-57 -98.5q-31 -31 -75.5 -44t-123.5 -13h-297q-87 0 -137 13.5t-84 47.5q-28 28 -41 54q-19 -33 -41 -54q-34 -34 -84 -47.5t-135 -13.5h-268q-87 0 -138.5 13.5t-85.5 47.5q-54 54 -74 151 t-20 337zM289 549q0 -209 11 -282.5t38 -100.5q19 -18 47 -24.5t86 -6.5h254q58 0 86 7t45 24q28 28 39.5 101.5t11.5 281.5q0 206 -11.5 279.5t-39.5 101.5q-17 18 -44.5 24.5t-86.5 6.5h-254q-59 0 -87 -6.5t-46 -24.5q-27 -27 -38 -100t-11 -281zM1061 621h606 q-1 160 -12.5 223t-36.5 88q-20 18 -47.5 25.5t-83.5 7.5h-246q-58 0 -85.5 -7.5t-47.5 -27.5q-25 -25 -35.5 -85.5t-11.5 -223.5z" />
<glyph unicode="&#x178;" horiz-adv-x="1206" d="M25 1434h176l399 -701h12l396 701h174l-496 -865v-569h-162v567zM332 1606v194h170v-194h-170zM711 1606v194h170v-194h-170z" />
<glyph unicode="&#x2c6;" horiz-adv-x="1024" d="M188 1245v10l238 244h172l238 -244v-10h-121l-205 148l-203 -148h-119z" />
<glyph unicode="&#x2dc;" horiz-adv-x="1024" d="M213 1260v135q0 59 20 82q19 22 64 22h25q42 0 124 -31l242 -94l43 123h80v-135q0 -59 -20 -82t-64 -23h-25q-42 0 -124 31l-242 94l-43 -122h-80z" />
<glyph unicode="&#x2000;" horiz-adv-x="913" />
<glyph unicode="&#x2001;" horiz-adv-x="1827" />
<glyph unicode="&#x2002;" horiz-adv-x="913" />
<glyph unicode="&#x2003;" horiz-adv-x="1827" />
<glyph unicode="&#x2004;" horiz-adv-x="609" />
<glyph unicode="&#x2005;" horiz-adv-x="456" />
<glyph unicode="&#x2006;" horiz-adv-x="304" />
<glyph unicode="&#x2007;" horiz-adv-x="304" />
<glyph unicode="&#x2008;" horiz-adv-x="228" />
<glyph unicode="&#x2009;" horiz-adv-x="365" />
<glyph unicode="&#x200a;" horiz-adv-x="101" />
<glyph unicode="&#x2010;" horiz-adv-x="835" d="M129 575v154h578v-154h-578z" />
<glyph unicode="&#x2011;" horiz-adv-x="835" d="M129 575v154h578v-154h-578z" />
<glyph unicode="&#x2012;" horiz-adv-x="835" d="M129 575v154h578v-154h-578z" />
<glyph unicode="&#x2013;" horiz-adv-x="1134" d="M141 578v149h852v-149h-852z" />
<glyph unicode="&#x2014;" horiz-adv-x="2035" d="M141 580v145h1753v-145h-1753z" />
<glyph unicode="&#x2018;" horiz-adv-x="458" d="M121 926v204q0 43 9.5 70.5t35.5 56.5l170 203l57 -45l-139 -203q-14 -23 -14 -57v-16h79v-213h-198z" />
<glyph unicode="&#x2019;" horiz-adv-x="458" d="M66 946l139 203q14 20 14 55v17h-82v213h201v-205q0 -42 -10 -68.5t-35 -56.5l-170 -203z" />
<glyph unicode="&#x201a;" horiz-adv-x="462" d="M57 -274l140 200q14 23 14 58v16h-80v213h199v-205q0 -43 -9.5 -70.5t-35.5 -56.5l-170 -200z" />
<glyph unicode="&#x201c;" horiz-adv-x="833" d="M121 926v204q0 43 9.5 70.5t35.5 56.5l170 203l57 -45l-139 -203q-14 -23 -14 -57v-16h79v-213h-198zM496 926v204q0 42 10 69.5t35 57.5l172 203l57 -45l-139 -203q-17 -28 -17 -57v-16h82v-213h-200z" />
<glyph unicode="&#x201d;" horiz-adv-x="833" d="M66 946l139 203q14 20 14 55v17h-82v213h201v-205q0 -42 -10 -68.5t-35 -56.5l-170 -203zM440 946l140 203q16 23 16 55v17h-82v213h201v-205q0 -42 -10 -68.5t-35 -56.5l-172 -203z" />
<glyph unicode="&#x201e;" horiz-adv-x="835" d="M57 -274l140 200q14 23 14 58v16h-80v213h199v-205q0 -43 -9.5 -70.5t-35.5 -56.5l-170 -200zM434 -274l137 200q17 28 17 58v16h-82v213h201v-205q0 -42 -10 -69.5t-35 -57.5l-170 -200z" />
<glyph unicode="&#x2022;" horiz-adv-x="997" d="M252 743q0 111 10.5 157.5t36.5 72.5q19 21 45 28t74 7h164q46 0 71.5 -7t44.5 -28q26 -26 36.5 -72.5t10.5 -157.5q0 -110 -10.5 -156.5t-36.5 -72.5q-19 -21 -44.5 -28t-71.5 -7h-164q-48 0 -74 7t-45 28q-26 26 -36.5 72.5t-10.5 156.5z" />
<glyph unicode="&#x2026;" horiz-adv-x="1452" d="M150 0v209h190v-209h-190zM631 0v209h192v-209h-192zM1112 0v209h193v-209h-193z" />
<glyph unicode="&#x202f;" horiz-adv-x="365" />
<glyph unicode="&#x2039;" horiz-adv-x="741" d="M123 498v100l315 328h174l-350 -377l352 -377h-176z" />
<glyph unicode="&#x203a;" horiz-adv-x="741" d="M125 172l352 377l-350 377h176l315 -328v-100l-315 -326h-178z" />
<glyph unicode="&#x205f;" horiz-adv-x="456" />
<glyph unicode="&#x20ac;" horiz-adv-x="1421" d="M82 465v135h151v117v129h-151v135h158q8 184 34 266.5t76 128.5q33 32 81.5 45t143.5 13h361q95 0 143.5 -13t81.5 -45q57 -53 82 -138.5t29 -250.5h-158q-4 128 -18 189.5t-41 87.5q-17 17 -44 24.5t-87 7.5h-334q-60 0 -87 -7.5t-44 -24.5q-24 -22 -39.5 -81 t-22.5 -202h451v-135h-455v-129q0 -15 -0.5 -39.5t-0.5 -43t1 -34.5h455v-135h-451q7 -151 22.5 -211.5t39.5 -83.5q17 -17 44 -25t87 -8h334q60 0 87 8t44 25q28 26 41.5 89t17.5 210h160q-7 -187 -31 -273t-82 -139q-35 -32 -82.5 -44.5t-142.5 -12.5h-361 q-96 0 -144 12.5t-81 44.5q-50 45 -76 130t-36 278h-156z" />
<glyph unicode="&#x2122;" horiz-adv-x="1738" d="M106 1352v82h580v-82h-242v-707h-96v707h-242zM842 645v789h143q22 0 30.5 -6.5t14.5 -28.5l203 -645h14l203 645q6 22 14 28.5t31 6.5h137v-789h-94v694h-14l-219 -659q-6 -21 -16 -28t-32 -7h-45q-22 0 -30.5 6.5t-14.5 28.5l-219 659h-14v-694h-92z" />
<glyph unicode="&#x25fc;" horiz-adv-x="1095" d="M0 0v1096h1096v-1096h-1096z" />
</font>
</defs>
</svg>
